<?xml version="1.0" encoding="UTF-8"?><svg id="Layer_1" xmlns="http://www.w3.org/2000/svg" viewBox="0 0 1790.01 1272.89"><defs><style>.cls-1{stroke-width:10.64px;}.cls-1,.cls-2{fill:#ef3824;}.cls-1,.cls-2,.cls-3{stroke:#ef3824;stroke-linecap:round;stroke-miterlimit:10;}.cls-4,.cls-3{fill:#fff1ea;}.cls-2{stroke-width:7.09px;}.cls-3{stroke-width:21.66px;}</style></defs><path class="cls-4" d="m616.06,422.25h244.04c35.15,0,63.69,28.54,63.69,63.69v338.24c0,15.28-12.4,27.68-27.68,27.68h-246.8c-35.15,0-63.69-28.54-63.69-63.69v-335.47c0-16.8,13.64-30.44,30.44-30.44Z"/><path class="cls-3" d="m401.17,261.98c-12.11,54.48-36.32,96.85-30.27,127.12,6.05,30.27,25.73,107.44,116.52,104.42,72.63-2.42,134.73-63.58,153.85-131.2,14.81-52.38-19.95-89.18-46.17-130.69-23.57-37.31-48.86-84.79-87.4-108.87-70.22-31.78-103.51-34.81-151.94-22.7-48.43,12.11-55.99,63.56-68.1,77.18-12.11,13.62-119.55,9.08-148.3,13.62-28.75,4.54-60.53,49.94-37.83,95.34,11.34,22.68,20.16,47.66,41.57,63.02,21.96,15.75,52.54,23.13,77.98,30.8,110.47,33.29,145.28,73.09,104.42,170.47-23.19,55.28-51.11,109.69-47.01,171.29,2.13,32.06,12.28,61.9,16.7,93.57,10.2,73.14,59.49,138.6,62.08,213.88.94,27.23-11.62,53.05-26.42,75.14-13.69,20.44-57.49,69.34-10.72,77.75,42.51,7.64,84.38-21.77,108.52-54.2,23.89-32.09,24.79-80.26,31.93-118.22,20.31-107.94,102.88-149.67,206.91-140.88,107.44,9.08,232.94,38.15,283.73-12.62"/><path class="cls-3" d="m914.18,747.75c12.39,110.47,56.63,133.17,113.26,166.46,77.97,36.22,102.64,36.32,136.26,69.61,56.63,86.26-37.66,128.66-68.78,150.84-60.88,43.39,17.47,59.76,49.99,53.79,56.07-10.3,107.62-54.59,137.35-94.17,31.85-42.39,60.16-248.18,60.16-305.68,0-92.35-28.11-213.23-106.08-281.86-44.8-39.43-106.53-52.87-168.22-60.15-102.64-12.11-224.74-16.65-330.92-18.16-106.18-1.51-115.59-20.57-115.59-20.57"/><path class="cls-3" d="m1253.83,524.26c76.06,92.28,115.15,20.71,154.08,14.66,38.93-6.05,26.54-34.81,72.56-30.27,46.01,4.54,65.48-13.62,65.48-25.73s7.08-27.24,49.55-48.43c42.47-21.19,42.47-51.45,33.62-74.15-8.85-22.7,23.01-54.48,37.16-72.64,14.16-18.16,38.93-54.48,26.54-75.66-12.39-21.19-17.7-25.73-23.01-49.94,3.54-39.35-35.39-81.72-67.25-78.69-24.78,45.4-88.48,104.42-145.11,121.06-56.63,16.65-92.02,95.34-114.34,149.82-22.32,54.48-198.2,105.9-198.2,105.9,0,0,89.1,40.04,108.91,64.07Z"/><path class="cls-2" d="m157.94,195.55c-2.69,10.44-14.1,41.32-55.42,44.49-1.92.15-3.39-1.66-2.85-3.51,7.3-24.94,19.94-43.27,55.51-44.36,1.82-.06,3.21,1.61,2.76,3.37Z"/><path class="cls-3" d="m309.7,873.66c2.76,51.98,10.29,104.37,2.04,156.25-3.69,23.15-11.04,46.28-25.28,65.21-17.17,22.81-80.06,79.91-15.23,85.82,20.65,1.88,30.45-8.64,30.45-8.64,0,0-13.02-14.72,19.65-54.64,32.67-39.91,36.59-78.19,35.95-88.43-3.25-52.06-23.67-109.8-47.58-155.57Z"/><path class="cls-3" d="m951.52,858.36c31.9,24.68,64.08,49.54,100.37,67.13,19.96,9.68,40.96,17.06,61.07,26.43,26.76,12.46,55.35,29.8,67.04,58.35,26.29,64.15-41.49,95.42-85.08,124.39-39.78,26.43-13.33,43.39-13.33,43.39-19.41,9.72-85.97,24.11-87.76-11.65-1.88-37.38,49.23-51.28,75.55-64.39,11.34-5.65,22.47-13.18,28.23-24.47,16.97-33.24-25.79-42.19-47.51-51.64-32.37-14.08-74.54-43.27-98.87-69.36-22.37-23.99-24.44-45.93-36.97-75.54l37.26-22.65Z"/><ellipse class="cls-1" cx="332.64" cy="208.65" rx="14.13" ry="8.86" transform="translate(15.55 440.25) rotate(-68.24)"/></svg>