<?xml version="1.0" encoding="utf-8"?>
<!-- Generator: Adobe Illustrator 27.4.0, SVG Export Plug-In . SVG Version: 6.00 Build 0)  -->
<svg version="1.1" id="Layer_1" xmlns="http://www.w3.org/2000/svg" xmlns:xlink="http://www.w3.org/1999/xlink" x="0px" y="0px"
	 viewBox="0 0 465.3 178.6" style="enable-background:new 0 0 465.3 178.6;" xml:space="preserve">
<style type="text/css">
	.st0{fill:#FFF1EA;}
	.st1{fill:#FFF1EA;stroke:#EF3824;stroke-width:21.6576;stroke-linecap:round;stroke-miterlimit:10;}
	.st2{fill:#EF3824;stroke:#EF3824;stroke-width:7.092;stroke-linecap:round;stroke-miterlimit:10;}
	.st3{fill:#EF3824;stroke:#EF3824;stroke-width:10.6396;stroke-linecap:round;stroke-miterlimit:10.0012;}
	.st4{fill:none;stroke:#EF3824;stroke-width:4.8549;stroke-linecap:round;stroke-linejoin:round;stroke-miterlimit:10;}
	.st5{fill:#FFF1E9;stroke:#EE3A24;stroke-width:4.8549;stroke-miterlimit:10;}
	.st6{fill:none;stroke:#EF3824;stroke-width:4.8289;stroke-miterlimit:10;}
	.st7{fill:none;stroke:#EF3824;stroke-width:4.8549;stroke-miterlimit:10;}
	.st8{fill:#EF3824;}
	.st9{fill:#FFF1EA;stroke:#EF3824;stroke-width:7.9566;stroke-linecap:round;stroke-miterlimit:10;}
	.st10{fill:#EF3824;stroke:#EF3824;stroke-width:2.6055;stroke-linecap:round;stroke-miterlimit:10;}
	.st11{fill:#EF3824;stroke:#EF3824;stroke-width:3.9089;stroke-linecap:round;stroke-miterlimit:10.0012;}
	.st12{fill:none;}
	.st13{fill:#FFF1E9;}
	.st14{fill:#EC3B26;}
	.st15{enable-background:new    ;}
	.st16{fill:none;stroke:#EF3824;stroke-width:6.0434;stroke-miterlimit:10;}
	.st17{fill:#EF3824;stroke:#EF3824;stroke-width:6.0434;stroke-miterlimit:10;}
	.st18{fill:#EB3C25;}
</style>
<path class="st18" d="M433.2,61.4L433.2,61.4c0-18.5-15.2-33.7-33.7-33.7h0c-15.5,0-28.6,10.5-32.5,24.8H97.6
	C92.9,39.4,80.4,30,65.8,30h0c-18.5,0-33.7,15.2-33.7,33.7v0c0,10.8,5.2,20.5,13.2,26.7c-8,6.2-13.2,15.9-13.2,26.7v0
	c0,18.5,15.2,33.7,33.7,33.7h0c14.6,0,27.1-9.4,31.8-22.5h271c5.2,11.9,17.1,20.2,30.9,20.2h0c18.5,0,33.7-15.2,33.7-33.7v0
	c0-10.8-5.2-20.5-13.2-26.7C428,81.9,433.2,72.3,433.2,61.4z"/>
</svg>
