<?xml version="1.0" encoding="utf-8"?>
<!-- Generator: Adobe Illustrator 27.4.0, SVG Export Plug-In . SVG Version: 6.00 Build 0)  -->
<svg version="1.1" id="Layer_1" xmlns="http://www.w3.org/2000/svg" xmlns:xlink="http://www.w3.org/1999/xlink" x="0px" y="0px"
	 viewBox="0 0 1440 1024" style="enable-background:new 0 0 1440 1024;" xml:space="preserve">
<style type="text/css">
	.st0{fill:#FFF1EA;}
	.st1{fill:#FFF1EA;stroke:#EF3824;stroke-width:21.6576;stroke-linecap:round;stroke-miterlimit:10;}
	.st2{fill:#EF3824;stroke:#EF3824;stroke-width:7.092;stroke-linecap:round;stroke-miterlimit:10;}
	.st3{fill:#EF3824;stroke:#EF3824;stroke-width:10.6386;stroke-linecap:round;stroke-miterlimit:10.0004;}
	.st4{fill:none;stroke:#EF3824;stroke-width:4.8549;stroke-linecap:round;stroke-linejoin:round;stroke-miterlimit:10;}
	.st5{fill:#FFF1E9;stroke:#EE3A24;stroke-width:4.8549;stroke-miterlimit:10;}
	.st6{fill:none;stroke:#EF3824;stroke-width:4.8289;stroke-miterlimit:10;}
	.st7{fill:none;stroke:#EF3824;stroke-width:4.8549;stroke-miterlimit:10;}
	.st8{fill:#EF3824;}
	.st9{fill:none;stroke:#EF3824;stroke-width:4.9355;stroke-miterlimit:10;}
	.st10{fill:#EF3824;stroke:#EF3824;stroke-width:4.9355;stroke-miterlimit:10;}
	.st11{fill:#FFF1EA;stroke:#EF3824;stroke-width:7.9566;stroke-linecap:round;stroke-miterlimit:10;}
	.st12{fill:#EF3824;stroke:#EF3824;stroke-width:2.6055;stroke-linecap:round;stroke-miterlimit:10;}
	.st13{fill:#EF3824;stroke:#EF3824;stroke-width:3.9085;stroke-linecap:round;stroke-miterlimit:10.0004;}
	.st14{fill:none;}
	.st15{fill:#FFF1E9;}
	.st16{fill:#EC3B26;}
	.st17{enable-background:new    ;}
</style>
<g>
	<line class="st4" x1="111" y1="350.5" x2="111" y2="670.3"/>
	<path class="st5" d="M1357.4,391.1H952.8v-24.7h404.6c2.8,0,5.1,2.3,5.1,5.1v14.5C1362.6,388.8,1360.2,391.1,1357.4,391.1z"/>
	<polygon class="st6" points="970.3,314.9 111,314.9 147.3,125.6 940.8,125.6 	"/>
	<path class="st7" d="M995.6,350.5H94.9c-5.1,0-9.2-4.1-9.2-9.2v-17.2c0-5.1,4.1-9.2,9.2-9.2h900.7c5.1,0,9.2,4.1,9.2,9.2v17.2
		C1004.8,346.3,1000.7,350.5,995.6,350.5z"/>
	<path class="st5" d="M964.2,375.2H384v-24.7h580.2c3.4,0,6.1,2.8,6.1,6.1v12.5C970.3,372.4,967.6,375.2,964.2,375.2z"/>
	<rect x="384" y="572.4" class="st7" width="568.8" height="31.3"/>
	<rect x="384" y="604.2" class="st7" width="300" height="43.8"/>
	<rect x="364.3" y="648.4" class="st7" width="338.3" height="43.8"/>
	<path class="st7" d="M322,534.1h-115c-5.3,0-9.6-4.3-9.6-9.6V412c0-5.3,4.3-9.6,9.6-9.6h115c5.3,0,9.6,4.3,9.6,9.6v112.5
		C331.5,529.8,327.2,534.1,322,534.1z"/>
	<path class="st7" d="M595.2,572.4H475.8V403.1c0-5.8,4.7-10.5,10.5-10.5h98.3c5.8,0,10.5,4.7,10.5,10.5L595.2,572.4L595.2,572.4z"
		/>
	<path class="st7" d="M565.2,490.1h-58c-2.9,0-5.3-2.4-5.3-5.3v-69.2c0-2.9,2.4-5.3,5.3-5.3h58c2.9,0,5.3,2.4,5.3,5.3v69.2
		C570.5,487.7,568.1,490.1,565.2,490.1z"/>
	<path class="st7" d="M567.1,554.8h-61.9c-1.8,0-3.4-1.5-3.4-3.3v-24.9c0-1.8,1.5-3.3,3.4-3.3h61.9c1.8,0,3.3,1.5,3.3,3.3v24.9
		C570.5,553.2,569,554.8,567.1,554.8z"/>
	<path class="st7" d="M300.6,509.2h-72.3c-3.3,0-6.1-2.7-6.1-6.1v-72.3c0-3.3,2.7-6.1,6.1-6.1h72.3c3.3,0,6.1,2.7,6.1,6.1v72.3
		C306.6,506.4,303.9,509.2,300.6,509.2z"/>
	
		<ellipse transform="matrix(0.1602 -0.9871 0.9871 0.1602 -73.4115 924.5951)" class="st8" cx="506.7" cy="505.4" rx="6.2" ry="6.2"/>
	<line class="st7" x1="144.6" y1="350.5" x2="144.6" y2="572.4"/>
	<line class="st7" x1="415.6" y1="375.2" x2="415.6" y2="572.4"/>
	<line class="st7" x1="655.4" y1="375.2" x2="655.4" y2="572.4"/>
	<line class="st7" x1="687.6" y1="375.2" x2="687.6" y2="572.4"/>
	<line class="st7" x1="1310.1" y1="392.6" x2="1310.1" y2="574.1"/>
	<line class="st4" x1="1342.3" y1="392.6" x2="1342.3" y2="576"/>
	<line class="st7" x1="920.6" y1="375.2" x2="920.6" y2="572.4"/>
	<polyline class="st4" points="952.8,375.2 952.8,572.4 1342.3,576 	"/>
	<line class="st7" x1="687.6" y1="495.3" x2="920.6" y2="495.3"/>
	<line class="st7" x1="687.6" y1="509.7" x2="920.6" y2="509.7"/>
	<line class="st7" x1="706.3" y1="509.7" x2="706.3" y2="572.4"/>
	<line class="st7" x1="722.9" y1="509.7" x2="722.9" y2="572.4"/>
	<line class="st7" x1="751.1" y1="509.7" x2="751.1" y2="572.4"/>
	<line class="st7" x1="767.7" y1="509.7" x2="767.7" y2="572.4"/>
	<line class="st7" x1="795.8" y1="509.7" x2="795.8" y2="572.4"/>
	<line class="st7" x1="812.4" y1="509.7" x2="812.4" y2="572.4"/>
	<line class="st7" x1="840.1" y1="509.7" x2="840.1" y2="572.4"/>
	<line class="st7" x1="856.7" y1="509.7" x2="856.7" y2="572.4"/>
	<line class="st7" x1="884.7" y1="510.5" x2="884.7" y2="573.2"/>
	<line class="st7" x1="901.2" y1="510.5" x2="901.2" y2="573.2"/>
	<polyline class="st7" points="111,572.4 384,572.4 384,350.5 	"/>
	<line class="st4" x1="111" y1="670.3" x2="364.3" y2="670.3"/>
	<polyline class="st7" points="702.6,671.1 952.8,671.1 952.8,605.5 	"/>
	<path class="st7" d="M892.8,85.4h-98.6c-4.9,0-9-4-9-8.9V63.2c0-4.9,4-9,9-9h98.6c4.9,0,9,4,9,9v13.3
		C901.7,81.3,897.7,85.4,892.8,85.4z"/>
	<line class="st7" x1="800.2" y1="85.4" x2="800.2" y2="125.6"/>
	<line class="st7" x1="883.8" y1="85.4" x2="883.8" y2="125.6"/>
	<path class="st7" d="M867.8,54.2H815V32.9c0-3.7,3-6.7,6.7-6.7h39.4c3.7,0,6.7,3,6.7,6.7L867.8,54.2L867.8,54.2z"/>
	<polyline class="st7" points="947.7,169.8 1300,169.8 1342.3,366.4 	"/>
	<line class="st7" x1="222.2" y1="468.3" x2="306.6" y2="468.3"/>
	<path class="st7" d="M1063.5,446H999c-3.8,0-7-3.1-7-7v-16.3c0-3.9,3.2-7,7-7h64.5c3.8,0,7,3.1,7,7V439
		C1070.5,442.9,1067.3,446,1063.5,446z"/>
	<path class="st7" d="M1163.7,446h-64.5c-3.8,0-7-3.1-7-7v-16.3c0-3.9,3.2-7,7-7h64.5c3.8,0,7,3.1,7,7V439
		C1170.7,442.9,1167.6,446,1163.7,446z"/>
	<path class="st7" d="M1261.6,446H1197c-3.8,0-7-3.1-7-7v-16.3c0-3.9,3.2-7,7-7h64.5c3.8,0,7,3.1,7,7V439
		C1268.6,442.9,1265.4,446,1261.6,446z"/>
	<rect x="1110.7" y="550.1" class="st8" width="41.5" height="7.6"/>
</g>
<line class="st7" x1="364.3" y1="692.2" x2="-5.2" y2="844.4"/>
<line class="st7" x1="703.3" y1="692.2" x2="1445.2" y2="997.8"/>
<g>
	<g class="st17">
		<path class="st16" d="M271.4,184.7c0,4.4-6.1,3.5-6.7,12.2c-0.3,2.3-0.3,14.8-0.3,26.6c0,13.8,0.2,28.7,0.7,32.1
			c0.9,6.3,6.8,5.9,6.8,9.8c0,1.6-1.4,3-4.5,3c-3,0-7.5-0.3-11-0.3c-3.7,0-8.2,0.3-11.2,0.3c-3.2,0-4.5-1.4-4.5-3
			c0-3.9,6-3.5,6.9-9.8c0.3-2,0.7-15.4,0.7-24c0-3.4-0.9-4.7-3.7-4.7h-28.3c-2.5,0-3.8,0.9-3.8,4.7c0,8.8,0.4,21.7,0.8,24
			c0.9,6.3,6.8,5.9,6.8,9.8c0,1.6-1.4,3-4.5,3c-3,0-7.5-0.3-11-0.3c-3.7,0-8.2,0.3-11.2,0.3c-3.2,0-4.5-1.4-4.5-3
			c0-3.9,6-3.5,6.9-9.8c0.4-3.1,0.6-21.5,0.6-32.1c0-7.5,0-24.1-0.2-26.6c-0.7-8.6-6.9-7.9-6.9-12.2c0-1.7,0.9-3.2,4.2-3.2
			c3,0,7.6,0.3,11.2,0.3c3.6,0,8.1-0.3,11-0.3c3.1,0,4.1,1.5,4.1,3.2c0,3.8-4.8,3.6-6.2,9.1c-0.5,1.4-1,12.1-1,18
			c0,4.2,1,5.3,3.9,5.3h28c2.7,0,3.9-1,3.9-5.3c0-6.4-0.5-16.8-0.9-18c-1.1-5-6.3-5.5-6.3-9.1c0-1.7,0.9-3.2,4.2-3.2
			c3,0,7.6,0.3,11.2,0.3s8.1-0.3,11-0.3C270.4,181.5,271.4,182.9,271.4,184.7z"/>
		<path class="st16" d="M311.5,202.8c17.3,0,32.8,12.6,32.8,34.9c0,21.1-14.5,31.7-32,31.7c-19.6,0-32.2-13.8-32.2-32.8
			C280.1,216.6,293.3,202.8,311.5,202.8z M296.4,231.3c0,5.5,0.8,12.8,3.6,18.5c3.6,7.1,9.3,10,14.5,10c7.4,0,14.2-5.3,14.2-18.3
			c0-6.7-1.7-14.3-4.4-19.8c-3.7-7.1-8.9-10.6-14.2-10.6C302.7,211.1,296.4,217.5,296.4,231.3z"/>
		<path class="st16" d="M413.7,252c0,2.8,1.1,5.5,3.8,5.5c1.6,0,2.2-0.5,3.2-0.5c0.5,0,1.1,0.7,1.1,2.2c0,5.5-5.1,9.9-11.4,9.9
			c-7.2,0-9.8-4.1-11.3-7.2c-0.3-0.5-0.6-1.3-1.3-1.3c-0.4,0-1.1,0.8-1.8,1.4c-2.3,2.1-7.7,7.4-18.3,7.4
			c-15.4,0-21.3-10.9-21.3-24.2c0-9.5,1.3-21.1,1.3-24.4c0-3.6-0.9-5.1-2.5-6.7c-1.8-1.7-4.8-2.2-4.8-5c0-2.2,1.6-3.2,4.8-3.6
			c9.9-1.1,13-2.5,15.8-2.5c2.9,0,3.7,2,3.7,3.8c0,6-2.8,13.8-2.8,33.3c0,10.3,2.8,18.6,12.6,18.6c7.9,0,13.9-5.2,13.9-16.9v-19.5
			c0-4.5-0.6-6.7-3.4-8.7c-1.7-1.4-3.6-2.2-3.6-4.6c0-2.1,1.5-3.1,4.3-3.5c7.9-0.8,13.5-2.5,15.8-2.5c2.4,0,3.4,1.7,3.4,3.7
			c0,3.8-1.5,6.9-1.5,17.8V252z"/>
		<path class="st16" d="M474.5,208.1c2.5,2.6,3.4,5.9,3.4,10.9c0,3.4-1.3,5.1-3.2,5.1c-2.1,0-3.4-2.2-5.3-4.5
			c-3-3.8-7.5-9.1-15.4-9.1c-6.1,0-9.5,3.4-9.5,7.7c0,5.9,5.8,7.6,15.2,10.7c10.9,3.4,21.2,7.5,21.2,20.8
			c0,12.6-11.2,20.2-25.9,20.2c-7.6,0-18.5-2.3-23-8.2c-1.7-2.1-2.8-5.9-2.8-10.5c0-3.6,1.1-5.3,3.4-5.3c1.3,0,2.5,1.4,3.8,3.3
			c3.3,4.8,8.8,11.9,19.3,11.9c6.2,0,9.6-3.2,9.6-8.2c0-6.5-7-8.1-16.6-11.9c-8.4-3.2-17.8-6.9-17.8-18.7
			c0-12.3,11.7-19.4,24.6-19.4C461.8,202.7,470.7,204.1,474.5,208.1z"/>
		<path class="st16" d="M507.3,240c-1.2,0.1-1.6,0.3-1.6,1.2c0,5.4,5,15.9,18.1,15.9c9.7,0,15.5-4.8,18.8-10.2
			c0.7-0.9,1.6-1.6,2.3-1.6c1,0,1.6,1,1.6,3.3c0,7.7-9.1,20.9-27.2,20.9c-18.8,0-30.8-13.3-30.8-31.9c0-18.7,12.9-34.8,32.4-34.8
			c16.1,0,24.6,11.5,24.6,23c0,3.9-1.9,6.2-4.7,7.8C533.4,238.1,516.5,239.7,507.3,240z M519.5,211c-8.9,0-15.5,9-15.5,18.4
			c0,2,0.6,3.2,2.2,3.2c4.8,0,18-1.7,22.8-5c1.5-1,2.2-2.3,2.2-4.1C531.2,216.4,526.2,211,519.5,211z"/>
		<path class="st16" d="M610.9,251.7c0,4.5,1.6,6.7,3.9,8.6c2,1.8,4.5,2.8,4.5,5.1c0,1.8-1.5,3-4.4,3c-3,0-8.4-0.3-11.9-0.3
			c-4,0-8.7,0.3-11.2,0.3c-3.2,0-4.5-1.3-4.5-3c0-3.8,6-3.4,6.9-9.7c0.4-3.1,0.6-21.5,0.6-32.2c0-7.6-0.1-24.1-0.3-26.5
			c-0.7-8.6-6.9-7.9-6.9-12.3c0-1.7,0.9-3.2,4.2-3.2c4.8,0,7.5,0.3,13.9,0.3c6.9,0,12.5-0.4,20.9-0.4c19.5,0,30.7,8,30.7,23.4
			c0,7.7-3.9,16.6-19.4,21.8c-0.4,0.2-0.8,0.4-0.8,0.9c0,0.3,0.3,0.8,0.9,1.1c9.1,5.2,14.2,13,19.5,22.3c2.5,4.4,4.4,7.6,7.5,9.8
			c2.5,2,4.1,2.4,4.1,4.6c0,2.4-1.8,3.2-3.6,3.2c-2.5,0-8.1-0.3-11-0.3c-5,0-9,0.3-10.7,0.3c-2.6,0-4.4-1.5-4.4-3.1
			c0-2.2,1.5-2.7,1.5-5.7c0-7.9-8.9-21.3-15.2-25.4c-3.3-1.9-8.8-2.2-9.6-2.2c-3.9,0-5.2,1.9-5.2,5.1V251.7z M620.9,190.9
			c-9.2,0-9.9,0.7-9.9,7.6v17.6c0,4,1.5,6,10,6c11.4,0,18.2-5.9,18.2-15.6C639.2,196.4,631.7,190.9,620.9,190.9z"/>
		<path class="st16" d="M734.2,252c0,2.8,1.1,5.5,3.8,5.5c1.6,0,2.2-0.5,3.2-0.5c0.5,0,1.1,0.7,1.1,2.2c0,5.5-5.1,9.9-11.4,9.9
			c-7.2,0-9.8-4.1-11.3-7.2c-0.3-0.5-0.6-1.3-1.3-1.3c-0.4,0-1.1,0.8-1.8,1.4c-2.3,2.1-7.7,7.4-18.3,7.4
			c-15.4,0-21.3-10.9-21.3-24.2c0-9.5,1.3-21.1,1.3-24.4c0-3.6-0.9-5.1-2.5-6.7c-1.8-1.7-4.8-2.2-4.8-5c0-2.2,1.6-3.2,4.8-3.6
			c9.9-1.1,13-2.5,15.8-2.5c2.9,0,3.7,2,3.7,3.8c0,6-2.8,13.8-2.8,33.3c0,10.3,2.8,18.6,12.6,18.6c7.9,0,13.9-5.2,13.9-16.9v-19.5
			c0-4.5-0.6-6.7-3.4-8.7c-1.7-1.4-3.6-2.2-3.6-4.6c0-2.1,1.5-3.1,4.3-3.5c7.9-0.8,13.5-2.5,15.8-2.5c2.4,0,3.4,1.7,3.4,3.7
			c0,3.8-1.5,6.9-1.5,17.8V252z"/>
		<path class="st16" d="M771.2,200.5v52.4c0,4.4,1.1,6.2,3,7.8c1.8,1.6,3.9,2,3.9,4.5c0,1.8-1,3.2-4.4,3.2c-2.8,0-6.7-0.3-9.8-0.3
			c-3.8,0-6.8,0.3-10.9,0.3c-3,0-3.9-1.4-3.9-3c0-2.4,2.2-3.5,3.4-4.5c3.1-2.8,3.6-5.5,3.6-8.8v-59.8c0-2.9-2-4.4-4.3-5.2
			c-1.3-0.7-2.6-1.5-2.6-3c0-2.7,3.2-3.2,7.4-4.9c6-2.3,9-4.5,11.5-4.5c2.3,0,3.6,1.2,3.6,3.9C771.7,184,771.2,185.7,771.2,200.5z"
			/>
		<path class="st16" d="M803.8,240c-1.2,0.1-1.7,0.3-1.7,1.2c0,5.4,5,15.9,18.1,15.9c9.7,0,15.5-4.8,18.8-10.2
			c0.7-0.9,1.6-1.6,2.3-1.6c1,0,1.6,1,1.6,3.3c0,7.7-9.1,20.9-27.2,20.9c-18.8,0-30.8-13.3-30.8-31.9c0-18.7,12.9-34.8,32.4-34.8
			c16.1,0,24.6,11.5,24.6,23c0,3.9-1.9,6.2-4.7,7.8C829.8,238.1,813,239.7,803.8,240z M816,211c-8.9,0-15.5,9-15.5,18.4
			c0,2,0.6,3.2,2.2,3.2c4.8,0,18-1.7,22.8-5c1.5-1,2.2-2.3,2.2-4.1C827.6,216.4,822.6,211,816,211z"/>
		<path class="st16" d="M895.7,208.1c2.5,2.6,3.4,5.9,3.4,10.9c0,3.4-1.3,5.1-3.2,5.1c-2.1,0-3.4-2.2-5.3-4.5
			c-3-3.8-7.5-9.1-15.4-9.1c-6.1,0-9.5,3.4-9.5,7.7c0,5.9,5.8,7.6,15.2,10.7c10.9,3.4,21.2,7.5,21.2,20.8
			c0,12.6-11.2,20.2-25.9,20.2c-7.6,0-18.5-2.3-23-8.2c-1.7-2.1-2.8-5.9-2.8-10.5c0-3.6,1.1-5.3,3.4-5.3c1.3,0,2.5,1.4,3.8,3.3
			c3.3,4.8,8.8,11.9,19.3,11.9c6.2,0,9.6-3.2,9.6-8.2c0-6.5-7-8.1-16.6-11.9c-8.4-3.2-17.8-6.9-17.8-18.7
			c0-12.3,11.7-19.4,24.6-19.4C883,202.7,891.9,204.1,895.7,208.1z"/>
	</g>
</g>
</svg>
