<?xml version="1.0" encoding="utf-8"?>
<!-- Generator: Adobe Illustrator 27.4.0, SVG Export Plug-In . SVG Version: 6.00 Build 0)  -->
<svg version="1.1" id="Layer_1" xmlns="http://www.w3.org/2000/svg" xmlns:xlink="http://www.w3.org/1999/xlink" x="0px" y="0px"
	 viewBox="0 0 1440 1024" style="enable-background:new 0 0 1440 1024;" xml:space="preserve">
<style type="text/css">
	.st0{fill:#FFF1EA;}
	.st1{fill:#FFF1EA;stroke:#EF3824;stroke-width:21.6576;stroke-linecap:round;stroke-miterlimit:10;}
	.st2{fill:#EF3824;stroke:#EF3824;stroke-width:7.092;stroke-linecap:round;stroke-miterlimit:10;}
	.st3{fill:#EF3824;stroke:#EF3824;stroke-width:10.6386;stroke-linecap:round;stroke-miterlimit:10.0004;}
	.st4{fill:none;stroke:#EF3824;stroke-width:4.8549;stroke-linecap:round;stroke-linejoin:round;stroke-miterlimit:10;}
	.st5{fill:#FFF1E9;stroke:#EE3A24;stroke-width:4.8549;stroke-miterlimit:10;}
	.st6{fill:none;stroke:#EF3824;stroke-width:4.8289;stroke-miterlimit:10;}
	.st7{fill:none;stroke:#EF3824;stroke-width:4.8549;stroke-miterlimit:10;}
	.st8{fill:#EF3824;}
	.st9{fill:#FFF1EA;stroke:#EF3824;stroke-width:7.9566;stroke-linecap:round;stroke-miterlimit:10;}
	.st10{fill:#EF3824;stroke:#EF3824;stroke-width:2.6055;stroke-linecap:round;stroke-miterlimit:10;}
	.st11{fill:#EF3824;stroke:#EF3824;stroke-width:3.9085;stroke-linecap:round;stroke-miterlimit:10.0004;}
	.st12{fill:none;}
	.st13{fill:#FFF1E9;}
	.st14{fill:#EC3B26;}
	.st15{enable-background:new    ;}
	.st16{fill:none;stroke:#EF3824;stroke-width:6.0434;stroke-miterlimit:10;}
	.st17{fill:#EF3824;stroke:#EF3824;stroke-width:6.0434;stroke-miterlimit:10;}
</style>
<path class="st16" d="M406.5,887.5h-312c-11.8,0-21.4-9.6-21.4-21.4V356.5c0-11.8,9.6-21.4,21.4-21.4h312c11.8,0,21.4,9.6,21.4,21.4
	v509.6C427.9,877.9,418.3,887.5,406.5,887.5z"/>
<path class="st16" d="M706.6,888.7H462.1c-10.9,0-19.8-8.9-19.8-19.8V587.4c0-10.9,8.9-19.8,19.8-19.8h244.5
	c10.9,0,19.8,8.9,19.8,19.8V869C726.4,879.9,717.5,888.7,706.6,888.7z"/>
<path class="st16" d="M713.6,416.4h-254c-8.3,0-15-6.7-15-15V150.6c0-8.3,6.7-15,15-15h254c8.3,0,15,6.7,15,15v250.8
	C728.6,409.7,721.9,416.4,713.6,416.4z"/>
<path class="st16" d="M410.5,320.9h-320c-9.6,0-17.4-7.8-17.4-17.4V153c0-9.6,7.8-17.4,17.4-17.4h320c9.6,0,17.4,7.8,17.4,17.4
	v150.5C427.9,313.1,420.1,320.9,410.5,320.9z"/>
<rect x="98.3" y="235.7" class="st16" width="304.3" height="61.8"/>
<rect x="98.3" y="158.6" class="st16" width="304.3" height="61.8"/>
<path class="st16" d="M1356.6,416.4h-251.7c-8.9,0-16.2-7.2-16.2-16.2V151.8c0-8.9,7.2-16.2,16.2-16.2h251.7
	c8.9,0,16.2,7.2,16.2,16.2v248.4C1372.7,409.1,1365.5,416.4,1356.6,416.4z"/>
<path class="st16" d="M852.1,135.6h110.7c6.5,0,11.8,5.3,11.8,11.8V227H840.2v-79.6C840.2,140.9,845.5,135.6,852.1,135.6z"/>
<rect x="774.6" y="655.6" class="st16" width="273.4" height="138.9"/>
<path class="st16" d="M1058.9,888.7H758.4c-10.9,0-19.8-8.9-19.8-19.8V838h340.2v30.9C1078.7,879.9,1069.9,888.7,1058.9,888.7z"/>
<path class="st16" d="M706.2,888.7H461.6c-10.7,0-19.3-8.6-19.3-19.3v-15.6h284v14.8C726.4,879.7,717.3,888.7,706.2,888.7z"/>
<path class="st16" d="M726.4,591.2h-284V588c0-11.1,9-20.2,20.2-20.2h244.6c10.6,0,19.2,8.6,19.2,19.2V591.2z"/>
<path class="st16" d="M1354.1,889.9h-238.2c-12.6,0-22.9-10.2-22.9-22.9v-12h284v12C1377,879.7,1366.8,889.9,1354.1,889.9z"/>
<path class="st16" d="M1351.7,889.9h-233.4c-14,0-25.3-11.3-25.3-25.3V594.2c0-14,11.3-25.3,25.3-25.3h233.4
	c14,0,25.3,11.3,25.3,25.3v270.5C1377,878.6,1365.7,889.9,1351.7,889.9z"/>
<path class="st16" d="M1057.2,888.7H760.1c-11.9,0-21.6-9.6-21.6-21.6v-278c0-11.9,9.6-21.6,21.6-21.6h297.1
	c11.9,0,21.6,9.6,21.6,21.6v278C1078.7,879.1,1069.1,888.7,1057.2,888.7z"/>
<line class="st16" x1="738.6" y1="624.6" x2="1078.7" y2="624.6"/>
<rect x="73.1" y="511.6" class="st17" width="354.8" height="12.7"/>
<line class="st16" x1="587" y1="135.6" x2="586.2" y2="416.4"/>
<line class="st16" x1="1231.1" y1="135.6" x2="1230.3" y2="416.4"/>
<rect x="473.2" y="161.9" class="st16" width="84.4" height="224"/>
<rect x="615.5" y="161.9" class="st16" width="84.4" height="224"/>
<rect x="1116.5" y="161.9" class="st16" width="84.4" height="224"/>
<rect x="1261.4" y="161.9" class="st16" width="84.4" height="224"/>
<path class="st16" d="M1055.5,315.6H763.4c-5.1,0-7.6-6.2-4-9.7l79.2-77.2c1.1-1,2.5-1.6,4-1.6h129.8c1.4,0,2.8,0.5,3.9,1.5
	l83.2,77.2C1063.1,309.3,1060.6,315.6,1055.5,315.6z"/>
<ellipse class="st16" cx="787.5" cy="598.1" rx="17.8" ry="14"/>
<ellipse class="st16" cx="880.4" cy="598.1" rx="16.4" ry="12.8"/>
<ellipse class="st16" cx="926" cy="598.1" rx="16.4" ry="12.8"/>
<ellipse class="st16" cx="971.9" cy="598.1" rx="16.4" ry="12.8"/>
<ellipse class="st16" cx="1017.7" cy="598.1" rx="16.4" ry="12.8"/>
<ellipse class="st17" cx="694.7" cy="611" rx="8.9" ry="7"/>
<path class="st16" d="M1093,592.2h284l0,0c0-12.9-10.4-23.3-23.3-23.3h-237.3C1103.4,568.8,1093,579.3,1093,592.2L1093,592.2z"/>
<ellipse class="st17" cx="1123" cy="612.2" rx="8.9" ry="7"/>
<g>
	<g class="st15">
		<path class="st14" d="M514.8,453.8c0-4-5.4-5-5.4-9.4c0-2,1.6-3.8,5.2-3.8c2.8,0,8.5,0.4,11.6,0.4c2.8,0,11-0.3,13.8-0.3
			c4.1,0,6.4,0.7,6.4,4c0,4.3-6.4,5.8-12.8,10.6c-6,4.6-18.6,16.1-33.6,31.8c-0.4,0.5-0.9,0.9-0.9,1.5c0,0.3,0.2,0.7,1,0.9
			c16.6,5.2,26.7,16.4,36.7,35.4c2.7,5.7,5.2,9.7,9.4,12.8c3.3,2.3,5.3,2.9,5.3,5.6c0,3-2.1,3.9-4.4,3.9c-3.2,0-10.5-0.4-14.1-0.4
			c-6,0-11,0.4-13.1,0.4c-3.2,0-5.3-1.8-5.3-3.8c0-2.6,1.9-3.3,1.9-7c0-10.5-13.6-33.2-30.8-33.2c-3.2,0-5.1,1.7-5.1,5.7v17.9
			c0,5.5,1.9,8.2,4.7,10.6c2.5,2.2,5.5,3.4,5.5,6.2c0,2.3-1.8,3.7-5.4,3.7c-4.2,0-10.3-0.4-14.6-0.4c-4.6,0-9.9,0.4-13.7,0.4
			c-4,0-5.5-1.7-5.5-3.7c0-4.7,7.3-4.3,8.4-12c0.5-3.8,0.8-26.3,0.8-39.3c0-9.2,0-29.5-0.2-32.6c-0.9-10.6-8.5-9.7-8.5-15
			c0-2.1,1.1-4,5.1-4c3.7,0,9.2,0.4,13.7,0.4c4.4,0,9.9-0.4,13.4-0.4c3.8,0,5,1.8,5,4c0,4.3-5.9,4.7-7.2,10.7
			c-0.7,2.3-1.7,10.2-1.7,18.3c0,14.3,0.2,16.7,0.9,16.7C483.2,490.3,514.8,458.4,514.8,453.8z"/>
		<path class="st14" d="M583.6,497.8v30.3c0,5.4,1.4,7.5,3.7,9.6c2.2,2,4.7,2.5,4.7,5.5c0,2.3-1.2,3.9-5.4,3.9s-7.7-0.4-12-0.4
			c-4.8,0-6.8,0.4-13.3,0.4c-3.7,0-4.8-1.7-4.8-3.7c0-3,2.7-4.3,4.2-5.5c3.8-3.4,4.4-6.8,4.4-10.7V490c0-4.3-2.3-6.6-5.1-7.8
			c-1.6-0.9-3.4-2-3.4-4c0-3.7,4-4,9.1-6c7.3-3,11.5-5.6,14.1-5.6c3,0,4.4,1.5,4.4,4.8C584.4,475.6,583.6,482.6,583.6,497.8z
			 M577,434.6c5.5,0,9.9,3.6,9.9,9.2c0,7.8-8.2,14.1-16.4,14.1c-5.8,0-8.7-3.4-8.7-8C561.7,442.4,569.2,434.6,577,434.6z"/>
		<path class="st14" d="M626.9,515.3c0,8.8,1.9,18.1,11.5,18.1c4.9,0,8.6-3.1,10.8-5.4c1.2-1.2,1.8-1.9,2.8-1.9
			c0.9,0,2.1,0.7,2.1,3.2c0,1.5-0.5,3.5-1.7,5.5c-2.9,5.5-9.9,13.4-23.2,13.4c-14,0-21.1-9.3-21.1-27.9c0-7.1,1-27.2,1-34.9
			c0-3-0.7-4.4-3-4.7c-5.7-0.7-9-1.1-9-4.1c0-2.3,0.9-4.4,3.5-5.6c4.7-2.1,9.4-4.7,12.8-8.5c5.9-6.6,6.4-15,10.8-15
			c2.5,0,4.1,2.1,4.1,6.1c0,3-0.8,15.1-0.8,15.6c0,0.4,0.1,0.6,0.7,0.6c1.3,0,16.6-0.8,18.3-0.8c3,0,5,0.9,5,4.5
			c0,2.6-1.5,6.1-2.8,7.5c-0.5,0.5-1.4,0.9-2.6,0.9c-1.6,0-15.2-0.8-17.3-0.8c-0.5,0-1.2,0.2-1.2,1.3
			C627.4,485.3,626.9,507.3,626.9,515.3z"/>
		<path class="st14" d="M698.6,466.7c15.9,0,27.4,8.8,27.4,19.9c0,7.5-5.6,11.8-12.1,11.8c-3.7,0-3.9-2-5-6.5
			c-1.7-7.9-5.8-15.3-14-15.3c-9.9,0-17.5,10.2-17.5,24.8c0,16.9,9.4,30.2,25.8,30.2c13.4,0,19.2-8.7,22-13.2c0.7-0.9,1.6-2,2.6-2
			c1.8,0,2.3,2,2.3,4.4c0,11.4-11.9,27.6-33.3,27.6c-22.4,0-37.8-16.5-37.8-39.2C659,486.4,674,466.7,698.6,466.7z"/>
		<path class="st14" d="M745.3,454c0-3.6-2.5-5.4-5.2-6.4c-1.6-0.9-3.2-1.8-3.2-3.7c0-3.3,4-4,9-6c7.3-2.9,11-5.5,14.1-5.5
			c2.8,0,4.4,1.5,4.4,4.7c0,3.8-1.4,16.8-1.4,39.9c0,2.5,0.5,3,1.2,3c1.6,0,10.6-13.4,26.8-13.4c16.4,0,25.4,10.6,25.4,30.5
			c0,14.3-2.2,27.6-2.2,32.7c0,3,1.2,6.1,3.7,7.9c2.9,1.9,5.3,2.3,5.3,5.3c0,2.3-1.6,3.9-5.8,3.9c-3.5,0-6.1-0.4-10.5-0.4
			c-4.7,0-6.9,0.4-10.8,0.4c-3,0-4-1.7-4-3.7c0-2.5,1.3-5.1,1.8-6.6c1.5-4.6,3.4-19.1,3.4-34.3c0-15.3-5.9-22.6-15.8-22.6
			c-8.5,0-17.7,8.3-17.7,16.2v32.1c0,5.4,0.9,7.5,3.3,9.6c2.3,2,4.8,2.5,4.8,5.5c0,2.3-1.2,3.9-5.4,3.9s-7.3-0.4-11.6-0.4
			c-4.8,0-6.8,0.4-13.3,0.4c-3.7,0-4.8-1.7-4.8-3.7c0-3,2.7-4.3,4.2-5.5c3.8-3.4,4.4-6.8,4.4-10.7V454z"/>
		<path class="st14" d="M854.4,512.3c-1.5,0.1-2,0.4-2,1.5c0,6.6,6.1,19.5,22.1,19.5c11.9,0,19-5.8,23.1-12.5c0.9-1.1,1.9-2,2.9-2
			c1.2,0,2,1.2,2,4c0,9.4-11.2,25.6-33.3,25.6c-23,0-37.8-16.2-37.8-39.1c0-22.8,15.9-42.6,39.7-42.6c19.7,0,30.2,14.1,30.2,28.1
			c0,4.8-2.3,7.6-5.8,9.6C886.3,510,865.7,511.9,854.4,512.3z M869.3,476.7c-11,0-19,11-19,22.5c0,2.4,0.8,3.9,2.6,3.9
			c5.9,0,22-2,28-6.1c1.8-1.2,2.6-2.8,2.6-5C883.6,483.3,877.5,476.7,869.3,476.7z"/>
		<path class="st14" d="M988.2,530c0,3,1.2,6.1,3.7,7.9c2.9,1.9,5.3,2.3,5.3,5.3c0,2.3-1.6,3.9-5.8,3.9c-3.5,0-6.2-0.4-10.5-0.4
			c-4.7,0-6.9,0.4-10.8,0.4c-3,0-4-1.7-4-3.7c0-2.5,1.2-5.1,1.8-6.6c1.5-4.6,3.4-19.1,3.4-34.3c0-15.3-5.9-22.6-15.8-22.6
			c-8.5,0-17.7,8.3-17.7,16.2v32.1c0,5.4,0.9,7.5,3.3,9.6c2.3,2,4.8,2.5,4.8,5.5c0,2.3-1.2,3.9-5.4,3.9s-7.6-0.4-11.6-0.4
			c-4.6,0-8.2,0.4-13.3,0.4c-3.7,0-4.8-1.7-4.8-3.7c0-3,2.7-4.3,4.2-5.5c3.8-3.4,4.4-6.8,4.4-10.7v-38.8c0-4-2.6-5.6-5.3-6.6
			c-1.6-0.8-3-1.8-3-3.7c0-3.4,4-4,9.1-6.2c6.5-2.8,8.9-4.5,11.5-4.5c2.4,0,3.8,1,4.6,4.4c0.8,3.7,1.1,7.6,2.4,7.6
			c1.6,0,11.2-12.7,26.3-12.7c16.5,0,25.5,10.6,25.5,30.5C990.4,511.5,988.2,524.8,988.2,530z"/>
	</g>
</g>
</svg>
