<?xml version="1.0" encoding="utf-8"?>
<!-- Generator: Adobe Illustrator 27.4.0, SVG Export Plug-In . SVG Version: 6.00 Build 0)  -->
<svg version="1.1" id="Layer_1" xmlns="http://www.w3.org/2000/svg" xmlns:xlink="http://www.w3.org/1999/xlink" x="0px" y="0px"
	 viewBox="0 0 268.9 78.1" style="enable-background:new 0 0 268.9 78.1;" xml:space="preserve">
<style type="text/css">
	.st0{fill:#FFF1EA;}
	.st1{fill:#FFF1EA;stroke:#EF3824;stroke-width:21.6576;stroke-linecap:round;stroke-miterlimit:10;}
	.st2{fill:#EF3824;stroke:#EF3824;stroke-width:7.092;stroke-linecap:round;stroke-miterlimit:10;}
	.st3{fill:#EF3824;stroke:#EF3824;stroke-width:10.6386;stroke-linecap:round;stroke-miterlimit:10.0004;}
	.st4{fill:none;stroke:#EF3824;stroke-width:4.8549;stroke-linecap:round;stroke-linejoin:round;stroke-miterlimit:10;}
	.st5{fill:#FFF1E9;stroke:#EE3A24;stroke-width:4.8549;stroke-miterlimit:10;}
	.st6{fill:none;stroke:#EF3824;stroke-width:4.8289;stroke-miterlimit:10;}
	.st7{fill:none;stroke:#EF3824;stroke-width:4.8549;stroke-miterlimit:10;}
	.st8{fill:#EF3824;}
	.st9{fill:#FFF1EA;stroke:#EF3824;stroke-width:7.9566;stroke-linecap:round;stroke-miterlimit:10;}
	.st10{fill:#EF3824;stroke:#EF3824;stroke-width:2.6055;stroke-linecap:round;stroke-miterlimit:10;}
	.st11{fill:#EF3824;stroke:#EF3824;stroke-width:3.9085;stroke-linecap:round;stroke-miterlimit:10.0004;}
	.st12{fill:none;}
	.st13{fill:#FFF1E9;}
	.st14{fill:#EC3B26;}
	.st15{enable-background:new    ;}
	.st16{fill:none;stroke:#EF3824;stroke-width:6.0434;stroke-miterlimit:10;}
	.st17{fill:#EF3824;stroke:#EF3824;stroke-width:6.0434;stroke-miterlimit:10;}
</style>
<g>
	<g>
		<path class="st14" d="M34.9,54.3c-1.4,2.2-3.9,3-4.7,3c-1.4,0-2.1-0.8-2.8-2.3c-0.1-0.2-0.8-2.1-1.4-3.9L19,31
			c-0.3-1-0.8-2.2-2-3.3c-0.5-0.5-1.2-1.2-1.2-2.1c0-1.4,1-1.8,2.9-1.8c1.3,0,2.5,0.1,4.8,0.1c2.3,0,4.1-0.1,5.5-0.1
			c1.4,0,2.1,0.6,2.1,1.7c0,1.6-2.3,2.1-2.3,4.5c0,1.3,2.8,11.6,3.9,13.9c0.1,0.3,0.3,0.5,0.4,0.5c0.1,0,0.3-0.3,0.4-0.7
			c0.7-2.2,3.3-11.9,3.3-13.7c0-2.5-2.1-3.1-2.1-4.6c0-0.9,0.5-1.6,2-1.6c1.1,0,3.3,0.1,4.5,0.1c2.2,0,3.9-0.1,5.3-0.1
			c1.4,0,2.2,0.6,2.2,1.7c0,1.6-2,2.1-2,4.4c0,1.3,2.7,11.6,3.6,13.8c0.2,0.4,0.3,0.7,0.5,0.7s0.3-0.3,0.5-0.8
			c0.8-2.4,3.1-12.3,3.1-14c0-2.3-2.4-2.7-2.4-4.2c0-0.9,0.5-1.6,2-1.6c1.1,0,3.3,0.1,4.5,0.1c1.1,0,1.9-0.1,3-0.1
			c1.1,0,1.6,0.6,1.6,1.5c0,1.8-2,1.8-3.2,6l-5.1,17.1c-0.6,2.2-1.6,4.8-2.3,6c-1.4,2.2-4,3-4.8,3c-1.4,0-2.1-0.9-2.8-2.3
			c-1.2-2.4-3.4-9.9-4.7-13.5c-0.2-0.5-0.3-0.7-0.5-0.7c-0.2,0-0.4,0.4-0.6,1.2C37.6,47.3,35.7,53,34.9,54.3z"/>
		<path class="st14" d="M71.4,45.9c-0.5,0-0.6,0.1-0.6,0.5c0,1.5,1.6,4.1,5.5,4.1c3.2,0,5-1.5,6.2-2.6c0.3-0.3,0.7-0.5,1-0.5
			c0.5,0,0.8,0.5,0.8,1.5c0,3.4-3.9,8.2-10.8,8.2c-7.6,0-12.2-5.1-12.2-12.2s5.1-13.3,12.9-13.3c7.1,0,9.6,5.3,9.6,8.6
			c0,1.8-0.9,2.8-2.3,3.5C78.9,45.1,73.9,45.7,71.4,45.9z M73.5,35.8c-2.3,0-3.8,2.4-3.8,4.8c0,1,0.3,1.6,1.1,1.6c1.2,0,4-0.7,5.1-2
			c0.3-0.4,0.5-0.8,0.5-1.3C76.3,37.1,75.1,35.8,73.5,35.8z"/>
		<path class="st14" d="M86.2,40.2c0-8.5,5.1-17.2,16-17.2c3.6,0,5.1,1,6.6,1c1.1,0,1.9-0.5,3-0.5c2.1,0,2.2,2.1,2.7,4.9
			c0.6,3.5,1,4.3,1,5.1c0,1.2-0.7,1.7-1.4,1.7c-1.4,0-2.2-1.6-3.3-3.3c-2.2-3-4.8-4.6-7.3-4.6c-4.8,0-7.4,5-7.4,10.2
			c0,8.2,4.8,13.4,8.7,13.4c1.2,0,2.2-0.6,2.7-1.3c0.4-0.7,0.5-1.8,0.5-3c0-3.8-1.1-4.3-2-5.1c-0.9-0.8-1.9-0.9-1.9-2.2
			c0-1,0.7-1.7,2.3-1.7c1.5,0,3.2,0.1,4.6,0.1c1.8,0,3.7-0.1,5.7-0.1c1.2,0,1.7,0.7,1.7,1.6c0,2.1-1.5,1.9-1.5,7.4
			c0,3,0.4,6.1,0.4,7.8c0,1.3-0.4,2.1-1.7,2.1c-0.6,0-1.2-0.3-1.9-0.8c-0.6-0.4-1.1-0.8-1.6-0.8c-0.8,0-1.8,0.4-2.9,0.8
			c-1.7,0.6-4,1.5-7,1.5C92.3,57.4,86.2,49.2,86.2,40.2z"/>
		<path class="st14" d="M132.8,31.6c6.8,0,12.8,4.8,12.8,13.3c0,8.1-5.7,12.1-12.5,12.1c-7.6,0-12.5-5.3-12.5-12.5
			C120.5,36.8,125.7,31.6,132.8,31.6z M129.3,41.4c0,2.4,0.4,5.4,1.3,7.6c0.8,1.8,2.1,2.9,3.5,2.9c1.6,0,3.1-1.2,3.1-4.8
			c0-2.4-0.6-5.5-1.6-7.7c-1-2.3-2.4-3.5-3.6-3.5C130.6,35.9,129.3,37.1,129.3,41.4z"/>
		<path class="st14" d="M158.1,32.9v16.2c0,2.1,0.4,2.9,1.1,3.7c0.7,0.8,1.5,1,1.5,2.3c0,1-0.5,1.6-2,1.6c-1.4,0-3.2-0.1-4.6-0.1
			c-1.8,0-3.3,0.1-5.3,0.1c-1.2,0-1.7-0.7-1.7-1.5c0-1.2,1-1.8,1.4-2.3c1.2-1.5,1.3-2.9,1.3-4.2V29.4c0-1.3-0.9-2-1.5-2.3
			c-0.5-0.3-1-0.7-1-1.4c0-1.3,1.8-1.5,3.9-2.4c2.4-1,4.1-2,5.3-2c1,0,1.7,0.5,1.7,1.7C158.3,26,158.1,26,158.1,32.9z"/>
		<path class="st14" d="M179.3,54.7c-0.3-0.4-0.5-0.9-0.8-0.9c-0.2,0-0.6,0.4-1.1,0.9c-1.1,1-2.9,2.3-5.9,2.3c-4.8,0-9-3.8-9-11.9
			c0-8.7,4.3-13.6,9.8-13.6c4,0,5.4,2.2,5.7,2.2c0.2,0,0.4-0.4,0.4-2.1v-2c0-1.4-1-2.3-1.6-2.6c-0.5-0.3-1-0.7-1-1.4
			c0-1.3,1.8-1.5,3.9-2.4c2.4-1,4.1-2,5.3-2c1,0,1.7,0.5,1.7,1.7c0,3.1-0.2,3-0.2,10V49c0,0.9,0.4,1.9,1.5,1.9c0.4,0,0.7-0.1,1-0.1
			c0.3,0,0.5,0.5,0.5,1c0,3-2.5,5.1-5.7,5.1C181.7,57,180.5,56.3,179.3,54.7z M178.6,43.9c0-6-1.8-7.8-3.6-7.8c-2,0-3.6,1.8-3.6,7.3
			c0,5.4,1.7,7.8,4,7.8C177.2,51.1,178.6,49.6,178.6,43.9z"/>
		<path class="st14" d="M201.8,43v6c0,2.1,0.4,2.9,1.1,3.7c0.7,0.8,1.5,1,1.5,2.3c0,1-0.5,1.6-2,1.6c-1.5,0-3.2-0.1-4.6-0.1
			c-1.8,0-3.2,0.1-5.3,0.1c-1.2,0-1.7-0.7-1.7-1.5c0-1.2,1-1.8,1.4-2.3c1.2-1.5,1.3-2.9,1.3-4.2v-7.9c0-1.7-0.8-2.7-1.4-3.1
			c-0.5-0.4-1.1-0.8-1.1-1.6c0-1.5,1.8-1.6,3.9-2.5c2.4-1,4.4-2,5.4-2c1.1,0,1.7,0.5,1.7,1.7C202.1,34.9,201.8,37.8,201.8,43z
			 M198.8,20.9c2.1,0,3.8,1.4,3.8,3.6c0,3-3.2,5.4-6.4,5.4c-2.3,0-3.4-1.3-3.4-3.1C192.9,24,195.8,20.9,198.8,20.9z"/>
		<path class="st14" d="M216.1,45.9c-0.5,0-0.6,0.1-0.6,0.5c0,1.5,1.6,4.1,5.5,4.1c3.2,0,5-1.5,6.2-2.6c0.3-0.3,0.7-0.5,1-0.5
			c0.5,0,0.8,0.5,0.8,1.5c0,3.4-3.9,8.2-10.8,8.2c-7.6,0-12.2-5.1-12.2-12.2s5.1-13.3,12.9-13.3c7.1,0,9.6,5.3,9.6,8.6
			c0,1.8-0.9,2.8-2.3,3.5C223.5,45.1,218.5,45.7,216.1,45.9z M218.1,35.8c-2.3,0-3.8,2.4-3.8,4.8c0,1,0.3,1.6,1.1,1.6
			c1.2,0,4-0.7,5.1-2c0.3-0.4,0.5-0.8,0.5-1.3C220.9,37.1,219.8,35.8,218.1,35.8z"/>
		<path class="st14" d="M248.9,33.3c1.2,1.2,1.5,2.8,1.5,4.7c0,1.3-0.8,2.1-1.7,2.1c-0.8,0-1.5-0.7-2.3-1.5
			c-1.2-1.3-2.8-3.1-5.3-3.1c-1.6,0-2.4,0.9-2.4,1.9c0,1.6,1.7,2,5.2,3.3c3.7,1.3,7.5,3.2,7.5,8.4c0,4.7-4.2,8.1-10.6,8.1
			c-2.5,0-6.5-0.7-8.4-2.4c-0.8-0.7-1.5-2.6-1.5-5c0-1.3,0.6-2.1,1.8-2.1c0.6,0,1.1,0.5,1.6,1.1c1.3,1.4,3.1,3.8,6.3,3.8
			c1.5,0,2.3-0.8,2.3-2c0-1.9-2.7-2.3-5.9-3.9c-2.6-1.3-5.5-2.9-5.5-7.3c0-4.7,4.5-7.9,9.9-7.9C244.1,31.5,247.6,31.9,248.9,33.3z"
			/>
	</g>
</g>
</svg>
