<?xml version="1.0" encoding="utf-8"?>
<!-- Generator: Adobe Illustrator 27.4.0, SVG Export Plug-In . SVG Version: 6.00 Build 0)  -->
<svg version="1.1" id="Layer_1" xmlns="http://www.w3.org/2000/svg" xmlns:xlink="http://www.w3.org/1999/xlink" x="0px" y="0px"
	 viewBox="0 0 609 424" style="enable-background:new 0 0 609 424;" xml:space="preserve">
<style type="text/css">
	.st0{fill:#FFF1EA;}
	.st1{fill:#FFF1EA;stroke:#EF3824;stroke-width:21.6576;stroke-linecap:round;stroke-miterlimit:10;}
	.st2{fill:#EF3824;stroke:#EF3824;stroke-width:7.092;stroke-linecap:round;stroke-miterlimit:10;}
	.st3{fill:#EF3824;stroke:#EF3824;stroke-width:10.6401;stroke-linecap:round;stroke-miterlimit:10.0016;}
	.st4{fill:none;stroke:#EF3824;stroke-width:4.8549;stroke-linecap:round;stroke-linejoin:round;stroke-miterlimit:10;}
	.st5{fill:#FFF1E9;stroke:#EE3A24;stroke-width:4.8549;stroke-miterlimit:10;}
	.st6{fill:none;stroke:#EF3824;stroke-width:4.8289;stroke-miterlimit:10;}
	.st7{fill:none;stroke:#EF3824;stroke-width:4.8549;stroke-miterlimit:10;}
	.st8{fill:#EF3824;}
	.st9{fill:#FFF1EA;stroke:#EF3824;stroke-width:7.9566;stroke-linecap:round;stroke-miterlimit:10;}
	.st10{fill:#EF3824;stroke:#EF3824;stroke-width:2.6055;stroke-linecap:round;stroke-miterlimit:10;}
	.st11{fill:#EF3824;stroke:#EF3824;stroke-width:3.9091;stroke-linecap:round;stroke-miterlimit:10.0016;}
	.st12{fill:none;}
	.st13{fill:#FFF1E9;}
	.st14{fill:#EC3B26;}
	.st15{enable-background:new    ;}
	.st16{fill:none;stroke:#EF3824;stroke-width:6.0434;stroke-miterlimit:10;}
	.st17{fill:#EF3824;stroke:#EF3824;stroke-width:6.0434;stroke-miterlimit:10;}
	.st18{fill:#EB3C25;}
</style>
<g>
	<path class="st0" d="M-1367.6-436.2h-246.8c-35.2,0-63.7-28.5-63.7-63.7v-335.5c0-16.8,13.6-30.4,30.4-30.4h244
		c35.2,0,63.7,28.5,63.7,63.7v338.2C-1339.9-448.5-1352.3-436.2-1367.6-436.2z"/>
	<path class="st1" d="M-1862.5-1026.1c-12.1,54.5-36.3,96.9-30.3,127.1c6.1,30.3,25.7,107.4,116.5,104.4
		c72.6-2.4,134.7-63.6,153.9-131.2c14.8-52.4-19.9-89.2-46.2-130.7c-23.6-37.3-48.9-84.8-87.4-108.9
		c-70.2-31.8-103.5-34.8-151.9-22.7s-56,63.6-68.1,77.2s-119.6,9.1-148.3,13.6c-28.8,4.5-60.5,49.9-37.8,95.3
		c11.3,22.7,20.2,47.7,41.6,63c22,15.8,52.5,23.1,78,30.8c110.5,33.3,145.3,73.1,104.4,170.5c-23.2,55.3-51.1,109.7-47,171.3
		c2.1,32.1,12.3,61.9,16.7,93.6c10.2,73.1,59.5,138.6,62.1,213.9c0.9,27.2-11.6,53-26.4,75.1c-13.7,20.4-57.5,69.3-10.7,77.8
		c42.5,7.6,84.4-21.8,108.5-54.2c23.9-32.1,24.8-80.3,31.9-118.2c20.3-107.9,102.9-149.7,206.9-140.9
		c107.4,9.1,232.9,38.2,283.7-12.6"/>
	<path class="st1" d="M-1349.5-540.2c12.4,110.5,56.6,133.2,113.3,166.5c78,36.2,102.6,36.3,136.3,69.6
		c56.6,86.3-37.7,128.7-68.8,150.8c-60.9,43.4,17.5,59.8,50,53.8c56.1-10.3,107.6-54.6,137.4-94.2c31.8-42.4,60.2-248.2,60.2-305.7
		c0-92.3-28.1-213.2-106.1-281.9c-44.8-39.4-106.5-52.9-168.2-60.1c-102.6-12.1-224.7-16.6-330.9-18.2
		c-106.2-1.5-115.6-20.6-115.6-20.6"/>
	<path class="st1" d="M-1009.9-763.8c76.1,92.3,115.1,20.7,154.1,14.7c38.9-6,26.5-34.8,72.6-30.3c46,4.5,65.5-13.6,65.5-25.7
		c0-12.1,7.1-27.2,49.6-48.4c42.5-21.2,42.5-51.5,33.6-74.1c-8.9-22.7,23-54.5,37.2-72.6c14.2-18.2,38.9-54.5,26.5-75.7
		c-12.4-21.2-17.7-25.7-23-49.9c3.5-39.3-35.4-81.7-67.2-78.7c-24.8,45.5-88.5,104.5-145.1,121.2c-56.6,16.7-92,95.3-114.3,149.8
		c-22.3,54.5-198.2,105.9-198.2,105.9S-1029.7-787.8-1009.9-763.8z"/>
	<path class="st2" d="M-2105.8-1092.4c-2.7,10.4-14.1,41.3-55.4,44.5c-1.9,0.2-3.4-1.7-2.9-3.5c7.3-24.9,19.9-43.3,55.5-44.4
		C-2106.7-1095.9-2105.3-1094.2-2105.8-1092.4z"/>
	<path class="st1" d="M-1954-414.3c2.8,52,10.3,104.4,2,156.2c-3.7,23.2-11,46.3-25.3,65.2c-17.2,22.8-80.1,79.9-15.2,85.8
		c20.7,1.9,30.4-8.6,30.4-8.6s-13-14.7,19.7-54.6s36.6-78.2,35.9-88.4C-1909.7-310.8-1930.1-368.5-1954-414.3z"/>
	<path class="st1" d="M-1312.2-429.7c31.9,24.7,64.1,49.5,100.4,67.1c20,9.7,41,17.1,61.1,26.4c26.8,12.5,55.3,29.8,67,58.3
		c26.3,64.2-41.5,95.4-85.1,124.4c-39.8,26.4-13.3,43.4-13.3,43.4c-19.4,9.7-86,24.1-87.8-11.7c-1.9-37.4,49.2-51.3,75.6-64.4
		c11.3-5.7,22.5-13.2,28.2-24.5c17-33.2-25.8-42.2-47.5-51.6c-32.4-14.1-74.5-43.3-98.9-69.4c-22.4-24-24.4-45.9-37-75.5
		L-1312.2-429.7z"/>
	
		<ellipse transform="matrix(0.3707 -0.9288 0.9288 0.3707 -213.1725 -2472.6494)" class="st3" cx="-1931.2" cy="-1079" rx="14.1" ry="8.9"/>
</g>
<g>
	<line class="st4" x1="9" y1="-813.1" x2="9" y2="-493.2"/>
	<path class="st5" d="M1255.4-772.5H850.8v-24.7h404.6c2.8,0,5.1,2.3,5.1,5.1v14.5C1260.6-774.8,1258.3-772.5,1255.4-772.5z"/>
	<polygon class="st6" points="868.3,-848.6 9,-848.6 45.3,-1037.9 838.8,-1037.9 	"/>
	<path class="st7" d="M893.6-813.1H-7.1c-5.1,0-9.2-4.1-9.2-9.2v-17.2c0-5.1,4.1-9.2,9.2-9.2h900.7c5.1,0,9.2,4.1,9.2,9.2v17.2
		C902.8-817.2,898.7-813.1,893.6-813.1z"/>
	<path class="st5" d="M862.2-788.3H282V-813h580.2c3.4,0,6.1,2.8,6.1,6.1v12.5C868.3-791.1,865.6-788.3,862.2-788.3z"/>
	<rect x="282" y="-591.1" class="st7" width="568.8" height="31.3"/>
	<rect x="282" y="-559.3" class="st7" width="300" height="43.8"/>
	<rect x="262.3" y="-515.2" class="st7" width="338.3" height="43.8"/>
	<path class="st7" d="M220-629.5H105c-5.3,0-9.6-4.3-9.6-9.6v-112.5c0-5.3,4.3-9.6,9.6-9.6h115c5.3,0,9.6,4.3,9.6,9.6V-639
		C229.5-633.8,225.2-629.5,220-629.5z"/>
	<path class="st7" d="M493.2-591.1H373.8v-169.3c0-5.8,4.7-10.5,10.5-10.5h98.3c5.8,0,10.5,4.7,10.5,10.5L493.2-591.1L493.2-591.1z"
		/>
	<path class="st7" d="M463.2-673.5h-57.9c-2.9,0-5.3-2.4-5.3-5.3V-748c0-2.9,2.4-5.3,5.3-5.3h57.9c2.9,0,5.3,2.4,5.3,5.3v69.2
		C468.5-675.8,466.1-673.5,463.2-673.5z"/>
	<path class="st7" d="M465.1-608.8h-61.9c-1.8,0-3.3-1.5-3.3-3.3V-637c0-1.8,1.5-3.3,3.3-3.3h61.9c1.8,0,3.3,1.5,3.3,3.3v24.9
		C468.5-610.3,467-608.8,465.1-608.8z"/>
	<path class="st7" d="M198.6-654.3h-72.3c-3.3,0-6.1-2.7-6.1-6.1v-72.3c0-3.3,2.7-6.1,6.1-6.1h72.3c3.3,0,6.1,2.7,6.1,6.1v72.3
		C204.7-657.1,201.9-654.3,198.6-654.3z"/>
	<ellipse class="st8" cx="404.7" cy="-658.1" rx="6.2" ry="6.2"/>
	<line class="st7" x1="42.6" y1="-813.1" x2="42.6" y2="-591.1"/>
	<line class="st7" x1="313.6" y1="-788.3" x2="313.6" y2="-591.1"/>
	<line class="st7" x1="553.4" y1="-788.3" x2="553.4" y2="-591.1"/>
	<line class="st7" x1="585.6" y1="-788.3" x2="585.6" y2="-591.1"/>
	<line class="st7" x1="1208.1" y1="-771" x2="1208.1" y2="-589.5"/>
	<line class="st4" x1="1240.3" y1="-771" x2="1240.3" y2="-587.5"/>
	<line class="st7" x1="818.6" y1="-788.3" x2="818.6" y2="-591.1"/>
	<polyline class="st4" points="850.8,-788.3 850.8,-591.1 1240.3,-587.5 	"/>
	<line class="st7" x1="585.6" y1="-668.2" x2="818.6" y2="-668.2"/>
	<line class="st7" x1="585.6" y1="-653.8" x2="818.6" y2="-653.8"/>
	<line class="st7" x1="604.4" y1="-653.8" x2="604.4" y2="-591.1"/>
	<line class="st7" x1="620.9" y1="-653.8" x2="620.9" y2="-591.1"/>
	<line class="st7" x1="649.1" y1="-653.8" x2="649.1" y2="-591.1"/>
	<line class="st7" x1="665.7" y1="-653.8" x2="665.7" y2="-591.1"/>
	<line class="st7" x1="693.8" y1="-653.8" x2="693.8" y2="-591.1"/>
	<line class="st7" x1="710.4" y1="-653.8" x2="710.4" y2="-591.1"/>
	<line class="st7" x1="738.1" y1="-653.8" x2="738.1" y2="-591.1"/>
	<line class="st7" x1="754.7" y1="-653.8" x2="754.7" y2="-591.1"/>
	<line class="st7" x1="782.7" y1="-653" x2="782.7" y2="-590.3"/>
	<line class="st7" x1="799.2" y1="-653" x2="799.2" y2="-590.3"/>
	<polyline class="st7" points="9,-591.1 282,-591.1 282,-813.1 	"/>
	<line class="st4" x1="9" y1="-493.2" x2="262.3" y2="-493.2"/>
	<polyline class="st7" points="600.6,-492.4 850.8,-492.4 850.8,-558 	"/>
	<path class="st7" d="M790.8-1078.1h-98.6c-4.9,0-9-4-9-8.9v-13.3c0-4.9,4-9,9-9h98.6c4.9,0,8.9,4,8.9,9v13.3
		C799.7-1082.2,795.7-1078.1,790.8-1078.1z"/>
	<line class="st7" x1="698.2" y1="-1078.1" x2="698.2" y2="-1037.9"/>
	<line class="st7" x1="781.8" y1="-1078.1" x2="781.8" y2="-1037.9"/>
	<path class="st7" d="M765.8-1109.4h-52.9v-21.3c0-3.7,3-6.7,6.7-6.7H759c3.7,0,6.7,3,6.7,6.7L765.8-1109.4L765.8-1109.4z"/>
	<polyline class="st7" points="845.7,-993.8 1198,-993.8 1240.3,-797.1 	"/>
	<line class="st7" x1="120.2" y1="-695.2" x2="204.7" y2="-695.2"/>
	<path class="st7" d="M961.5-717.5H897c-3.8,0-7-3.1-7-7v-16.3c0-3.9,3.2-7,7-7h64.5c3.8,0,7,3.1,7,7v16.3
		C968.5-720.6,965.4-717.5,961.5-717.5z"/>
	<path class="st7" d="M1061.7-717.5h-64.5c-3.8,0-7-3.1-7-7v-16.3c0-3.9,3.2-7,7-7h64.5c3.8,0,7,3.1,7,7v16.3
		C1068.7-720.6,1065.6-717.5,1061.7-717.5z"/>
	<path class="st7" d="M1159.6-717.5h-64.5c-3.8,0-7-3.1-7-7v-16.3c0-3.9,3.2-7,7-7h64.5c3.8,0,7,3.1,7,7v16.3
		C1166.6-720.6,1163.4-717.5,1159.6-717.5z"/>
	<rect x="1008.7" y="-613.5" class="st8" width="41.5" height="7.6"/>
</g>
<line class="st7" x1="262.3" y1="-471.3" x2="-107.2" y2="-319.2"/>
<line class="st7" x1="601.3" y1="-471.3" x2="1343.2" y2="-165.8"/>
<g>
	<path class="st0" d="M303.7,292.7H213c-12.9,0-23.4-10.5-23.4-23.4V146.1c0-6.2,5-11.2,11.2-11.2h89.7c12.9,0,23.4,10.5,23.4,23.4
		v124.3C313.9,288.2,309.4,292.7,303.7,292.7z"/>
	<path class="st9" d="M121.9,76c-4.5,20-13.3,35.6-11.1,46.7s9.4,39.5,42.8,38.4c26.7-0.9,49.5-23.4,56.5-48.2
		c5.4-19.2-7.3-32.8-17-48c-8.7-13.7-18-31.2-32.1-40c-25.8-11.7-38-12.8-55.8-8.3c-17.8,4.4-20.6,23.3-25,28.3s-43.9,3.3-54.5,5
		s-22.2,18.3-13.9,35c4.2,8.3,7.4,17.5,15.3,23.2c8.1,5.8,19.3,8.5,28.7,11.3c40.6,12.2,53.4,26.8,38.4,62.6
		c-8.5,20.3-18.8,40.3-17.3,62.9c0.8,11.8,4.5,22.7,6.1,34.4c3.8,26.9,21.9,50.9,22.8,78.6c0.3,10-4.3,19.5-9.7,27.6
		c-5,7.5-21.1,25.5-3.9,28.6c15.6,2.8,31-8,39.9-19.9c8.8-11.8,9.1-29.5,11.7-43.4c7.5-39.7,37.8-55,76-51.8
		c39.5,3.3,85.6,14,104.2-4.6"/>
	<path class="st9" d="M310.4,254.5c4.5,40.6,20.8,48.9,41.6,61.2c28.6,13.3,37.7,13.3,50.1,25.6c20.8,31.7-13.8,47.3-25.3,55.4
		c-22.4,15.9,6.4,22,18.4,19.8c20.6-3.8,39.5-20.1,50.5-34.6c11.7-15.6,22.1-91.2,22.1-112.3c0-33.9-10.3-78.3-39-103.6
		c-16.5-14.5-39.1-19.4-61.8-22.1c-37.7-4.4-82.6-6.1-121.6-6.7s-42.5-7.6-42.5-7.6"/>
	<path class="st9" d="M435.2,172.4c27.9,33.9,42.3,7.6,56.6,5.4c14.3-2.2,9.8-12.8,26.7-11.1c16.9,1.7,24.1-5,24.1-9.4
		s2.6-10,18.2-17.8s15.6-18.9,12.3-27.2c-3.3-8.3,8.4-20,13.7-26.7c5.2-6.7,14.3-20,9.8-27.8c-4.6-7.8-6.5-9.4-8.5-18.3
		c1.3-14.4-13-30-24.7-28.9c-9.1,16.7-32.5,38.4-53.3,44.5s-33.8,35-42,55S395.3,149,395.3,149S427.9,163.6,435.2,172.4z"/>
	<path class="st10" d="M32.6,51.6c-1,3.8-5.2,15.2-20.4,16.3c-0.7,0.1-1.2-0.6-1-1.3c2.7-9.2,7.3-15.9,20.4-16.3
		C32.2,50.4,32.7,51,32.6,51.6z"/>
	<path class="st9" d="M88.3,300.8c1,19.1,3.8,38.3,0.8,57.4c-1.3,8.5-4,17-9.3,24c-6.3,8.4-29.4,29.4-5.6,31.5
		c7.6,0.7,11.2-3.2,11.2-3.2s-4.8-5.4,7.2-20.1s13.4-28.7,13.2-32.5C104.6,338.8,97.1,317.6,88.3,300.8z"/>
	<path class="st9" d="M324.1,295.1c11.7,9.1,23.5,18.2,36.9,24.7c7.3,3.6,15.1,6.3,22.4,9.7c9.8,4.6,20.3,10.9,24.6,21.4
		c9.7,23.6-15.2,35.1-31.3,45.7c-14.6,9.7-4.9,15.9-4.9,15.9c-7.1,3.6-31.6,8.9-32.2-4.3c-0.7-13.7,18.1-18.8,27.8-23.7
		c4.2-2.1,8.2-4.8,10.4-9c6.2-12.2-9.5-15.5-17.5-19c-11.9-5.2-27.4-15.9-36.3-25.5c-8.2-8.8-9-16.9-13.6-27.8L324.1,295.1z"/>
	<ellipse transform="matrix(0.3707 -0.9288 0.9288 0.3707 8.5395 125.4742)" class="st11" cx="96.9" cy="56.4" rx="5.2" ry="3.3"/>
</g>
<rect x="-1559.3" y="205.8" class="st12" width="237.4" height="38.6"/>
<text transform="matrix(1 0 0 1 -1730.3213 100.0238)" class="st14" style="font-family:'Gelica-Bold'; font-size:48px;">WeGold</text>
<text transform="matrix(1 0 0 1 -1553.7811 100.0238)" class="st14" style="font-family:'Gelica-Bold'; font-size:48px;">-</text>
<rect x="-1266.1" y="205.8" class="st12" width="237.4" height="38.6"/>
<text transform="matrix(1 0 0 1 -1266.0538 241.0988)" class="st13" style="font-family:'Gelica-Bold'; font-size:48px;">WeGold</text>
<text transform="matrix(1 0 0 1 -1089.5138 241.0988)" class="st13" style="font-family:'Gelica-Bold'; font-size:48px;">-</text>
<g>
	<path class="st13" d="M-1034.9,298.6h-42.4c-2,0-3.6-1.6-3.6-3.6v-0.8c0-2,1.6-3.6,3.6-3.6h42.4c2,0,3.6,1.6,3.6,3.6v0.8
		C-1031.2,297-1032.9,298.6-1034.9,298.6z"/>
	<path class="st13" d="M-1034.9,313.2h-42.4c-2,0-3.6-1.6-3.6-3.6v-0.8c0-2,1.6-3.6,3.6-3.6h42.4c2,0,3.6,1.6,3.6,3.6v0.8
		C-1031.2,311.6-1032.9,313.2-1034.9,313.2z"/>
	<path class="st13" d="M-1034.9,327.8h-42.4c-2,0-3.6-1.6-3.6-3.6v-0.8c0-2,1.6-3.6,3.6-3.6h42.4c2,0,3.6,1.6,3.6,3.6v0.8
		C-1031.2,326.2-1032.9,327.8-1034.9,327.8z"/>
</g>
<g>
	<path class="st14" d="M-1044.2,414.1l-30-30c-1.4-1.4-1.4-3.7,0-5.1l0.5-0.5c1.4-1.4,3.7-1.4,5.1,0l30,30c1.4,1.4,1.4,3.7,0,5.1
		l-0.5,0.5C-1040.5,415.5-1042.8,415.5-1044.2,414.1z"/>
	<path class="st14" d="M-1067.9,413.4l30-30c1.4-1.4,1.4-3.7,0-5.1l-0.5-0.5c-1.4-1.4-3.7-1.4-5.1,0l-30,30c-1.4,1.4-1.4,3.7,0,5.1
		l0.5,0.5C-1071.6,414.8-1069.3,414.8-1067.9,413.4z"/>
</g>
<g>
	<g class="st15">
		<path class="st14" d="M169.4-978.8c0,4.4-6.1,3.5-6.7,12.2c-0.3,2.3-0.3,14.8-0.3,26.6c0,13.8,0.2,28.7,0.7,32.1
			c0.9,6.3,6.8,5.9,6.8,9.8c0,1.6-1.4,3-4.5,3c-3,0-7.5-0.3-11-0.3c-3.7,0-8.2,0.3-11.2,0.3c-3.2,0-4.5-1.4-4.5-3
			c0-3.9,6-3.5,6.9-9.8c0.3-2,0.7-15.4,0.7-24c0-3.4-0.9-4.7-3.7-4.7h-28.3c-2.5,0-3.8,0.9-3.8,4.7c0,8.8,0.4,21.7,0.8,24
			c0.9,6.3,6.8,5.9,6.8,9.8c0,1.6-1.4,3-4.5,3c-3,0-7.5-0.3-11-0.3c-3.7,0-8.2,0.3-11.2,0.3c-3.2,0-4.5-1.4-4.5-3
			c0-3.9,6-3.5,6.9-9.8c0.4-3.1,0.6-21.5,0.6-32.1c0-7.5,0-24.1-0.2-26.6c-0.7-8.6-6.9-7.9-6.9-12.2c0-1.7,0.9-3.2,4.2-3.2
			c3,0,7.6,0.3,11.2,0.3s8.1-0.3,11-0.3c3.1,0,4.1,1.5,4.1,3.2c0,3.8-4.8,3.6-6.2,9.1c-0.5,1.4-1,12.1-1,18c0,4.2,1,5.3,3.9,5.3h28
			c2.7,0,3.9-1,3.9-5.3c0-6.4-0.5-16.8-0.9-18c-1.1-5-6.3-5.5-6.3-9.1c0-1.7,0.9-3.2,4.2-3.2c3,0,7.6,0.3,11.2,0.3
			c3.6,0,8.1-0.3,11-0.3C168.4-982.1,169.4-980.6,169.4-978.8z"/>
		<path class="st14" d="M209.5-960.8c17.3,0,32.8,12.6,32.8,34.9c0,21.1-14.5,31.7-32,31.7c-19.6,0-32.2-13.8-32.2-32.8
			C178.2-946.9,191.4-960.8,209.5-960.8z M194.4-932.2c0,5.5,0.8,12.8,3.6,18.5c3.6,7.1,9.3,10,14.5,10c7.4,0,14.2-5.3,14.2-18.3
			c0-6.7-1.7-14.3-4.4-19.8c-3.7-7.1-8.9-10.6-14.2-10.6C200.7-952.4,194.4-946.1,194.4-932.2z"/>
		<path class="st14" d="M311.7-911.6c0,2.8,1.1,5.5,3.8,5.5c1.6,0,2.2-0.5,3.2-0.5c0.5,0,1.1,0.7,1.1,2.2c0,5.5-5.1,9.9-11.4,9.9
			c-7.2,0-9.8-4.1-11.3-7.2c-0.3-0.5-0.6-1.3-1.3-1.3c-0.4,0-1.1,0.8-1.8,1.4c-2.3,2.1-7.7,7.4-18.3,7.4
			c-15.4,0-21.3-10.9-21.3-24.2c0-9.5,1.3-21.1,1.3-24.4c0-3.6-0.9-5.1-2.5-6.7c-1.8-1.7-4.8-2.2-4.8-5c0-2.2,1.6-3.2,4.8-3.6
			c9.9-1.1,13-2.5,15.8-2.5c2.9,0,3.7,2,3.7,3.8c0,6-2.8,13.8-2.8,33.3c0,10.3,2.8,18.6,12.6,18.6c7.9,0,13.9-5.2,13.9-16.9v-19.5
			c0-4.5-0.6-6.7-3.4-8.7c-1.7-1.4-3.6-2.2-3.6-4.6c0-2.1,1.5-3.1,4.3-3.5c7.9-0.8,13.5-2.5,15.8-2.5c2.4,0,3.4,1.7,3.4,3.7
			c0,3.8-1.5,6.9-1.5,17.8v27.5L311.7-911.6L311.7-911.6z"/>
		<path class="st14" d="M372.5-955.4c2.5,2.6,3.4,5.9,3.4,10.9c0,3.4-1.3,5.1-3.2,5.1c-2.1,0-3.4-2.2-5.3-4.5
			c-3-3.8-7.5-9.1-15.4-9.1c-6.1,0-9.5,3.4-9.5,7.7c0,5.9,5.8,7.6,15.2,10.7c10.9,3.4,21.2,7.5,21.2,20.8
			c0,12.6-11.2,20.2-25.9,20.2c-7.6,0-18.5-2.3-23-8.2c-1.7-2.1-2.8-5.9-2.8-10.5c0-3.6,1.1-5.3,3.4-5.3c1.3,0,2.5,1.4,3.8,3.3
			c3.3,4.8,8.8,11.9,19.3,11.9c6.2,0,9.6-3.2,9.6-8.2c0-6.5-7-8.1-16.6-11.9c-8.4-3.2-17.8-6.9-17.8-18.7
			c0-12.3,11.7-19.4,24.6-19.4C359.8-960.8,368.7-959.4,372.5-955.4z"/>
		<path class="st14" d="M405.3-923.6c-1.2,0.1-1.6,0.3-1.6,1.2c0,5.4,5,15.9,18.1,15.9c9.7,0,15.5-4.8,18.8-10.2
			c0.7-0.9,1.6-1.6,2.3-1.6c1,0,1.6,1,1.6,3.3c0,7.7-9.1,20.9-27.2,20.9c-18.8,0-30.8-13.3-30.8-31.9c0-18.7,12.9-34.8,32.4-34.8
			c16.1,0,24.6,11.5,24.6,23c0,3.9-1.9,6.2-4.7,7.8C431.4-925.4,414.5-923.8,405.3-923.6z M417.5-952.6c-8.9,0-15.5,9-15.5,18.4
			c0,2,0.6,3.2,2.2,3.2c4.8,0,18-1.7,22.8-5c1.5-1,2.2-2.3,2.2-4.1C429.2-947.1,424.2-952.6,417.5-952.6z"/>
		<path class="st14" d="M508.9-911.8c0,4.5,1.6,6.7,3.9,8.6c2,1.8,4.5,2.8,4.5,5.1c0,1.8-1.5,3-4.4,3c-3,0-8.4-0.3-11.9-0.3
			c-4,0-8.7,0.3-11.2,0.3c-3.2,0-4.5-1.3-4.5-3c0-3.8,6-3.4,6.9-9.7c0.4-3.1,0.6-21.5,0.6-32.2c0-7.6-0.1-24.1-0.3-26.5
			c-0.7-8.6-6.9-7.9-6.9-12.3c0-1.7,0.9-3.2,4.2-3.2c4.8,0,7.5,0.3,13.9,0.3c6.9,0,12.5-0.4,20.9-0.4c19.5,0,30.7,8,30.7,23.4
			c0,7.7-3.9,16.6-19.4,21.8c-0.4,0.2-0.8,0.4-0.8,0.9c0,0.3,0.3,0.8,0.9,1.1c9.1,5.2,14.2,13,19.5,22.3c2.5,4.4,4.4,7.6,7.5,9.8
			c2.5,2,4.1,2.4,4.1,4.6c0,2.4-1.8,3.2-3.6,3.2c-2.5,0-8.1-0.3-11-0.3c-5,0-9,0.3-10.7,0.3c-2.6,0-4.4-1.5-4.4-3.1
			c0-2.2,1.5-2.7,1.5-5.7c0-7.9-8.9-21.3-15.2-25.4c-3.3-1.9-8.8-2.2-9.6-2.2c-3.9,0-5.2,1.9-5.2,5.1V-911.8z M518.9-972.6
			c-9.2,0-9.9,0.7-9.9,7.6v17.6c0,4,1.5,6,10,6c11.4,0,18.2-5.9,18.2-15.6C537.2-967.1,529.7-972.6,518.9-972.6z"/>
		<path class="st14" d="M632.2-911.6c0,2.8,1.1,5.5,3.8,5.5c1.6,0,2.2-0.5,3.2-0.5c0.5,0,1.1,0.7,1.1,2.2c0,5.5-5.1,9.9-11.4,9.9
			c-7.2,0-9.8-4.1-11.3-7.2c-0.3-0.5-0.6-1.3-1.3-1.3c-0.4,0-1.1,0.8-1.8,1.4c-2.3,2.1-7.7,7.4-18.3,7.4
			c-15.4,0-21.3-10.9-21.3-24.2c0-9.5,1.3-21.1,1.3-24.4c0-3.6-0.9-5.1-2.5-6.7c-1.8-1.7-4.8-2.2-4.8-5c0-2.2,1.6-3.2,4.8-3.6
			c9.9-1.1,13-2.5,15.8-2.5c2.9,0,3.7,2,3.7,3.8c0,6-2.8,13.8-2.8,33.3c0,10.3,2.8,18.6,12.6,18.6c7.9,0,13.9-5.2,13.9-16.9v-19.5
			c0-4.5-0.6-6.7-3.4-8.7c-1.7-1.4-3.6-2.2-3.6-4.6c0-2.1,1.5-3.1,4.3-3.5c7.9-0.8,13.5-2.5,15.8-2.5c2.4,0,3.4,1.7,3.4,3.7
			c0,3.8-1.5,6.9-1.5,17.8v27.5L632.2-911.6L632.2-911.6z"/>
		<path class="st14" d="M669.2-963.1v52.4c0,4.4,1.1,6.2,3,7.8c1.8,1.6,3.9,2,3.9,4.5c0,1.8-1,3.2-4.4,3.2c-2.8,0-6.7-0.3-9.8-0.3
			c-3.8,0-6.8,0.3-10.9,0.3c-3,0-3.9-1.4-3.9-3c0-2.4,2.2-3.5,3.4-4.5c3.1-2.8,3.6-5.5,3.6-8.8v-59.8c0-2.9-2-4.4-4.3-5.2
			c-1.3-0.7-2.6-1.5-2.6-3c0-2.7,3.2-3.2,7.4-4.9c6-2.3,9-4.5,11.5-4.5c2.3,0,3.6,1.2,3.6,3.9C669.7-979.6,669.2-977.8,669.2-963.1z
			"/>
		<path class="st14" d="M701.8-923.6c-1.2,0.1-1.7,0.3-1.7,1.2c0,5.4,5,15.9,18.1,15.9c9.7,0,15.5-4.8,18.8-10.2
			c0.7-0.9,1.6-1.6,2.3-1.6c1,0,1.6,1,1.6,3.3c0,7.7-9.1,20.9-27.2,20.9c-18.8,0-30.8-13.3-30.8-31.9c0-18.7,12.9-34.8,32.4-34.8
			c16.1,0,24.6,11.5,24.6,23c0,3.9-1.9,6.2-4.7,7.8C727.8-925.4,711-923.8,701.8-923.6z M714-952.6c-8.9,0-15.5,9-15.5,18.4
			c0,2,0.6,3.2,2.2,3.2c4.8,0,18-1.7,22.8-5c1.5-1,2.2-2.3,2.2-4.1C725.6-947.1,720.6-952.6,714-952.6z"/>
		<path class="st14" d="M793.7-955.4c2.5,2.6,3.4,5.9,3.4,10.9c0,3.4-1.3,5.1-3.2,5.1c-2.1,0-3.4-2.2-5.3-4.5
			c-3-3.8-7.5-9.1-15.4-9.1c-6.1,0-9.5,3.4-9.5,7.7c0,5.9,5.8,7.6,15.2,10.7c10.9,3.4,21.2,7.5,21.2,20.8
			c0,12.6-11.2,20.2-25.9,20.2c-7.6,0-18.5-2.3-23-8.2c-1.7-2.1-2.8-5.9-2.8-10.5c0-3.6,1.1-5.3,3.4-5.3c1.3,0,2.5,1.4,3.8,3.3
			c3.3,4.8,8.8,11.9,19.3,11.9c6.2,0,9.6-3.2,9.6-8.2c0-6.5-7-8.1-16.6-11.9c-8.4-3.2-17.8-6.9-17.8-18.7
			c0-12.3,11.7-19.4,24.6-19.4C781-960.8,789.9-959.4,793.7-955.4z"/>
	</g>
</g>
<path class="st16" d="M2335.2-276h-312c-11.8,0-21.4-9.6-21.4-21.4V-807c0-11.8,9.6-21.4,21.4-21.4h312c11.8,0,21.4,9.6,21.4,21.4
	v509.6C2356.6-285.6,2347-276,2335.2-276z"/>
<path class="st16" d="M2635.3-274.8h-244.5c-10.9,0-19.8-8.9-19.8-19.8v-281.5c0-10.9,8.9-19.8,19.8-19.8h244.5
	c10.9,0,19.8,8.9,19.8,19.8v281.6C2655.1-283.6,2646.2-274.8,2635.3-274.8z"/>
<path class="st16" d="M2642.3-747.1h-254c-8.3,0-15-6.7-15-15v-250.8c0-8.3,6.7-15,15-15h254c8.3,0,15,6.7,15,15v250.8
	C2657.3-753.8,2650.6-747.1,2642.3-747.1z"/>
<path class="st16" d="M2339.2-842.6h-320c-9.6,0-17.4-7.8-17.4-17.4v-150.5c0-9.6,7.8-17.4,17.4-17.4h320c9.6,0,17.4,7.8,17.4,17.4
	V-860C2356.6-850.4,2348.8-842.6,2339.2-842.6z"/>
<rect x="2027" y="-927.8" class="st16" width="304.3" height="61.8"/>
<rect x="2027" y="-1004.9" class="st16" width="304.3" height="61.8"/>
<path class="st16" d="M3285.3-747.1h-251.7c-8.9,0-16.2-7.2-16.2-16.2v-248.4c0-8.9,7.2-16.2,16.2-16.2h251.7
	c8.9,0,16.2,7.2,16.2,16.2v248.4C3301.4-754.5,3294.2-747.1,3285.3-747.1z"/>
<path class="st16" d="M2780.8-1027.9h110.7c6.5,0,11.8,5.3,11.8,11.8v79.6h-134.4v-79.6C2768.9-1022.6,2774.2-1027.9,2780.8-1027.9z
	"/>
<rect x="2703.3" y="-507.9" class="st16" width="273.4" height="138.9"/>
<path class="st16" d="M2987.6-274.8h-300.5c-10.9,0-19.8-8.9-19.8-19.8v-30.9h340.2v30.9C3007.4-283.6,2998.6-274.8,2987.6-274.8z"
	/>
<path class="st16" d="M2634.9-274.8h-244.6c-10.7,0-19.3-8.6-19.3-19.3v-15.6h284v14.8C2655.1-283.8,2646-274.8,2634.9-274.8z"/>
<path class="st16" d="M2655.1-572.3h-284v-3.2c0-11.1,9-20.2,20.2-20.2h244.6c10.6,0,19.2,8.6,19.2,19.2V-572.3L2655.1-572.3z"/>
<path class="st16" d="M3282.8-273.6h-238.2c-12.6,0-22.9-10.2-22.9-22.9v-12h284v12C3305.7-283.8,3295.5-273.6,3282.8-273.6z"/>
<path class="st16" d="M3280.4-273.6H3047c-14,0-25.3-11.3-25.3-25.3v-270.4c0-14,11.3-25.3,25.3-25.3h233.4
	c14,0,25.3,11.3,25.3,25.3v270.5C3305.7-284.9,3294.4-273.6,3280.4-273.6z"/>
<path class="st16" d="M2985.9-274.8h-297.1c-11.9,0-21.6-9.6-21.6-21.6v-278c0-11.9,9.6-21.6,21.6-21.6h297.1
	c11.9,0,21.6,9.6,21.6,21.6v278C3007.4-284.4,2997.8-274.8,2985.9-274.8z"/>
<line class="st16" x1="2667.3" y1="-538.9" x2="3007.4" y2="-538.9"/>
<rect x="2001.8" y="-652" class="st17" width="354.8" height="12.7"/>
<line class="st16" x1="2515.7" y1="-1027.9" x2="2514.9" y2="-747.1"/>
<line class="st16" x1="3159.8" y1="-1027.9" x2="3159" y2="-747.1"/>
<rect x="2401.9" y="-1001.6" class="st16" width="84.4" height="224"/>
<rect x="2544.2" y="-1001.6" class="st16" width="84.4" height="224"/>
<rect x="3045.2" y="-1001.6" class="st16" width="84.4" height="224"/>
<rect x="3190.1" y="-1001.6" class="st16" width="84.4" height="224"/>
<path class="st16" d="M2984.2-847.9h-292.1c-5.1,0-7.6-6.2-4-9.7l79.2-77.2c1.1-1,2.5-1.6,4-1.6h129.8c1.4,0,2.8,0.5,3.9,1.5
	l83.2,77.2C2991.8-854.2,2989.3-847.9,2984.2-847.9z"/>
<ellipse class="st16" cx="2716.2" cy="-565.5" rx="17.8" ry="14"/>
<ellipse class="st16" cx="2809.1" cy="-565.5" rx="16.4" ry="12.8"/>
<ellipse class="st16" cx="2854.7" cy="-565.5" rx="16.4" ry="12.8"/>
<ellipse class="st16" cx="2900.6" cy="-565.5" rx="16.4" ry="12.8"/>
<ellipse class="st16" cx="2946.4" cy="-565.5" rx="16.4" ry="12.8"/>
<ellipse class="st17" cx="2623.4" cy="-552.5" rx="8.9" ry="7"/>
<path class="st16" d="M3021.7-571.3h284l0,0c0-12.9-10.4-23.3-23.3-23.3h-237.3C3032.1-594.8,3021.7-584.2,3021.7-571.3
	L3021.7-571.3z"/>
<ellipse class="st17" cx="3051.7" cy="-551.3" rx="8.9" ry="7"/>
<path class="st16" d="M2367.2-310.9"/>
<g>
	<g class="st15">
		<path class="st14" d="M2443.5-709.8c0-4-5.4-5-5.4-9.4c0-2,1.6-3.8,5.2-3.8c2.8,0,8.5,0.4,11.6,0.4c2.8,0,11-0.3,13.8-0.3
			c4.1,0,6.4,0.7,6.4,4c0,4.3-6.4,5.8-12.8,10.6c-6,4.6-18.6,16.1-33.6,31.8c-0.4,0.5-0.9,0.9-0.9,1.5c0,0.3,0.2,0.7,1,0.9
			c16.6,5.2,26.7,16.4,36.7,35.4c2.7,5.7,5.2,9.7,9.4,12.8c3.3,2.3,5.3,2.9,5.3,5.6c0,3-2.1,3.9-4.4,3.9c-3.2,0-10.5-0.4-14.1-0.4
			c-6,0-11,0.4-13.1,0.4c-3.2,0-5.3-1.8-5.3-3.8c0-2.6,1.9-3.3,1.9-7c0-10.5-13.6-33.2-30.8-33.2c-3.2,0-5.1,1.7-5.1,5.7v17.9
			c0,5.5,1.9,8.2,4.7,10.6c2.5,2.2,5.5,3.4,5.5,6.2c0,2.3-1.8,3.7-5.4,3.7c-4.2,0-10.3-0.4-14.6-0.4c-4.6,0-9.9,0.4-13.7,0.4
			c-4,0-5.5-1.7-5.5-3.7c0-4.7,7.3-4.3,8.4-12c0.5-3.8,0.8-26.3,0.8-39.3c0-9.2,0-29.5-0.2-32.6c-0.9-10.6-8.5-9.7-8.5-15
			c0-2.1,1.1-4,5.1-4c3.7,0,9.2,0.4,13.7,0.4c4.4,0,9.9-0.4,13.4-0.4c3.8,0,5,1.8,5,4c0,4.3-5.9,4.7-7.2,10.7
			c-0.7,2.3-1.7,10.2-1.7,18.3c0,14.3,0.2,16.7,0.9,16.7C2411.9-673.2,2443.5-705.1,2443.5-709.8z"/>
		<path class="st14" d="M2512.3-665.8v30.3c0,5.4,1.4,7.5,3.7,9.6c2.2,2,4.7,2.5,4.7,5.5c0,2.3-1.2,3.9-5.4,3.9s-7.7-0.4-12-0.4
			c-4.8,0-6.8,0.4-13.3,0.4c-3.7,0-4.8-1.7-4.8-3.7c0-3,2.7-4.3,4.2-5.5c3.8-3.4,4.4-6.8,4.4-10.7v-37.2c0-4.3-2.3-6.6-5.1-7.8
			c-1.6-0.9-3.4-2-3.4-4c0-3.7,4-4,9.1-6c7.3-3,11.5-5.6,14.1-5.6c3,0,4.4,1.5,4.4,4.8C2513.1-688,2512.3-681,2512.3-665.8z
			 M2505.7-729c5.5,0,9.9,3.6,9.9,9.2c0,7.8-8.2,14.1-16.4,14.1c-5.8,0-8.7-3.4-8.7-8C2490.4-721.1,2497.9-729,2505.7-729z"/>
		<path class="st14" d="M2555.6-648.2c0,8.8,1.9,18.1,11.5,18.1c4.9,0,8.6-3.1,10.8-5.4c1.2-1.2,1.8-1.9,2.8-1.9
			c0.9,0,2.1,0.7,2.1,3.2c0,1.5-0.5,3.5-1.7,5.5c-2.9,5.5-9.9,13.4-23.2,13.4c-14,0-21.1-9.3-21.1-27.9c0-7.1,1-27.2,1-34.9
			c0-3-0.7-4.4-3-4.7c-5.7-0.7-9-1.1-9-4.1c0-2.3,0.9-4.4,3.5-5.6c4.7-2.1,9.4-4.7,12.8-8.5c5.9-6.6,6.4-15,10.8-15
			c2.5,0,4.1,2.1,4.1,6.1c0,3-0.8,15.1-0.8,15.6c0,0.4,0.1,0.6,0.7,0.6c1.3,0,16.6-0.8,18.3-0.8c3,0,5,0.9,5,4.5
			c0,2.6-1.5,6.1-2.8,7.5c-0.5,0.5-1.4,0.9-2.6,0.9c-1.6,0-15.2-0.8-17.3-0.8c-0.5,0-1.2,0.2-1.2,1.3
			C2556.1-678.2,2555.6-656.2,2555.6-648.2z"/>
		<path class="st14" d="M2627.3-696.8c15.9,0,27.4,8.8,27.4,19.9c0,7.5-5.6,11.8-12.1,11.8c-3.7,0-3.9-2-5-6.5
			c-1.7-7.9-5.8-15.3-14-15.3c-9.9,0-17.5,10.2-17.5,24.8c0,16.9,9.4,30.2,25.8,30.2c13.4,0,19.2-8.7,22-13.2c0.7-0.9,1.6-2,2.6-2
			c1.8,0,2.3,2,2.3,4.4c0,11.4-11.9,27.6-33.3,27.6c-22.4,0-37.8-16.5-37.8-39.2C2587.7-677.1,2602.7-696.8,2627.3-696.8z"/>
		<path class="st14" d="M2674-709.5c0-3.6-2.5-5.4-5.2-6.4c-1.6-0.9-3.2-1.8-3.2-3.7c0-3.3,4-4,9-6c7.3-2.9,11-5.5,14.1-5.5
			c2.8,0,4.4,1.5,4.4,4.7c0,3.8-1.4,16.8-1.4,39.9c0,2.5,0.5,3,1.2,3c1.6,0,10.6-13.4,26.8-13.4c16.4,0,25.4,10.6,25.4,30.5
			c0,14.3-2.2,27.6-2.2,32.7c0,3,1.2,6.1,3.7,7.9c2.9,1.9,5.3,2.3,5.3,5.3c0,2.3-1.6,3.9-5.8,3.9c-3.5,0-6.1-0.4-10.5-0.4
			c-4.7,0-6.9,0.4-10.8,0.4c-3,0-4-1.7-4-3.7c0-2.5,1.3-5.1,1.8-6.6c1.5-4.6,3.4-19.1,3.4-34.3c0-15.3-5.9-22.6-15.8-22.6
			c-8.5,0-17.7,8.3-17.7,16.2v32.1c0,5.4,0.9,7.5,3.3,9.6c2.3,2,4.8,2.5,4.8,5.5c0,2.3-1.2,3.9-5.4,3.9s-7.3-0.4-11.6-0.4
			c-4.8,0-6.8,0.4-13.3,0.4c-3.7,0-4.8-1.7-4.8-3.7c0-3,2.7-4.3,4.2-5.5c3.8-3.4,4.4-6.8,4.4-10.7L2674-709.5L2674-709.5z"/>
		<path class="st14" d="M2783.1-651.2c-1.5,0.1-2,0.4-2,1.5c0,6.6,6.1,19.5,22.1,19.5c11.9,0,19-5.8,23.1-12.5c0.9-1.1,1.9-2,2.9-2
			c1.2,0,2,1.2,2,4c0,9.4-11.2,25.6-33.3,25.6c-23,0-37.8-16.2-37.8-39.1c0-22.8,15.9-42.6,39.7-42.6c19.7,0,30.2,14.1,30.2,28.1
			c0,4.8-2.3,7.6-5.8,9.6C2815-653.5,2794.4-651.6,2783.1-651.2z M2798-686.8c-11,0-19,11-19,22.5c0,2.4,0.8,3.9,2.6,3.9
			c5.9,0,22-2,28-6.1c1.8-1.2,2.6-2.8,2.6-5C2812.3-680.2,2806.2-686.8,2798-686.8z"/>
		<path class="st14" d="M2916.9-633.5c0,3,1.2,6.1,3.7,7.9c2.9,1.9,5.3,2.3,5.3,5.3c0,2.3-1.6,3.9-5.8,3.9c-3.5,0-6.2-0.4-10.5-0.4
			c-4.7,0-6.9,0.4-10.8,0.4c-3,0-4-1.7-4-3.7c0-2.5,1.2-5.1,1.8-6.6c1.5-4.6,3.4-19.1,3.4-34.3c0-15.3-5.9-22.6-15.8-22.6
			c-8.5,0-17.7,8.3-17.7,16.2v32.1c0,5.4,0.9,7.5,3.3,9.6c2.3,2,4.8,2.5,4.8,5.5c0,2.3-1.2,3.9-5.4,3.9s-7.6-0.4-11.6-0.4
			c-4.6,0-8.2,0.4-13.3,0.4c-3.7,0-4.8-1.7-4.8-3.7c0-3,2.7-4.3,4.2-5.5c3.8-3.4,4.4-6.8,4.4-10.7V-675c0-4-2.6-5.6-5.3-6.6
			c-1.6-0.8-3-1.8-3-3.7c0-3.4,4-4,9.1-6.2c6.5-2.8,8.9-4.5,11.5-4.5c2.4,0,3.8,1,4.6,4.4c0.8,3.7,1.1,7.6,2.4,7.6
			c1.6,0,11.2-12.7,26.3-12.7c16.5,0,25.5,10.6,25.5,30.5C2919.1-652,2916.9-638.8,2916.9-633.5z"/>
	</g>
</g>
<g>
	<g>
		<path class="st14" d="M-1998.4,245.7c-1.4,2.2-3.9,3-4.7,3c-1.4,0-2.1-0.8-2.8-2.3c-0.1-0.2-0.8-2.1-1.4-3.9l-7-20.1
			c-0.3-1-0.8-2.2-2-3.3c-0.5-0.5-1.2-1.2-1.2-2.1c0-1.4,1-1.8,2.9-1.8c1.3,0,2.5,0.1,4.8,0.1s4.1-0.1,5.5-0.1s2.1,0.6,2.1,1.7
			c0,1.6-2.3,2.1-2.3,4.5c0,1.3,2.8,11.6,3.9,13.9c0.1,0.3,0.3,0.5,0.4,0.5s0.3-0.3,0.4-0.7c0.7-2.2,3.3-11.9,3.3-13.7
			c0-2.5-2.1-3.1-2.1-4.6c0-0.9,0.5-1.6,2-1.6c1.1,0,3.3,0.1,4.5,0.1c2.2,0,3.9-0.1,5.3-0.1s2.2,0.6,2.2,1.7c0,1.6-2,2.1-2,4.4
			c0,1.3,2.7,11.6,3.6,13.8c0.2,0.4,0.3,0.7,0.5,0.7s0.3-0.3,0.5-0.8c0.8-2.4,3.1-12.3,3.1-14c0-2.3-2.4-2.7-2.4-4.2
			c0-0.9,0.5-1.6,2-1.6c1.1,0,3.3,0.1,4.5,0.1c1.1,0,1.9-0.1,3-0.1s1.6,0.6,1.6,1.5c0,1.8-2,1.8-3.2,6l-5.1,17.1
			c-0.6,2.2-1.6,4.8-2.3,6c-1.4,2.2-4,3-4.8,3c-1.4,0-2.1-0.9-2.8-2.3c-1.2-2.4-3.4-9.9-4.7-13.5c-0.2-0.5-0.3-0.7-0.5-0.7
			s-0.4,0.4-0.6,1.2C-1995.7,238.6-1997.6,244.2-1998.4,245.7z"/>
		<path class="st14" d="M-1961.9,237.2c-0.5,0-0.6,0.1-0.6,0.5c0,1.5,1.6,4.1,5.5,4.1c3.2,0,5-1.5,6.2-2.6c0.3-0.3,0.7-0.5,1-0.5
			c0.5,0,0.8,0.5,0.8,1.5c0,3.4-3.9,8.2-10.8,8.2c-7.6,0-12.2-5.1-12.2-12.2c0-7.1,5.1-13.3,12.9-13.3c7.1,0,9.6,5.3,9.6,8.6
			c0,1.8-0.9,2.8-2.3,3.5C-1954.4,236.4-1959.5,237-1961.9,237.2z M-1959.9,227.1c-2.3,0-3.8,2.4-3.8,4.8c0,1,0.3,1.6,1.1,1.6
			c1.2,0,4-0.7,5.1-2c0.3-0.4,0.5-0.8,0.5-1.3C-1957,228.5-1958.2,227.1-1959.9,227.1z"/>
		<path class="st14" d="M-1947.1,231.6c0-8.5,5.1-17.2,16-17.2c3.6,0,5.1,1,6.6,1c1.1,0,1.9-0.5,3-0.5c2.1,0,2.2,2.1,2.7,4.9
			c0.6,3.5,1,4.3,1,5.1c0,1.2-0.7,1.7-1.4,1.7c-1.4,0-2.2-1.6-3.3-3.3c-2.2-3-4.8-4.6-7.3-4.6c-4.8,0-7.4,5-7.4,10.2
			c0,8.2,4.8,13.4,8.7,13.4c1.2,0,2.2-0.6,2.7-1.3c0.4-0.7,0.5-1.8,0.5-3c0-3.8-1.1-4.3-2-5.1c-0.9-0.8-1.9-0.9-1.9-2.2
			c0-1,0.7-1.7,2.3-1.7c1.5,0,3.2,0.1,4.6,0.1c1.8,0,3.7-0.1,5.7-0.1c1.2,0,1.7,0.7,1.7,1.6c0,2.1-1.5,1.9-1.5,7.4
			c0,3,0.4,6.1,0.4,7.8c0,1.3-0.4,2.1-1.7,2.1c-0.6,0-1.2-0.3-1.9-0.8c-0.6-0.4-1.1-0.8-1.6-0.8c-0.8,0-1.8,0.4-2.9,0.8
			c-1.7,0.6-4,1.5-7,1.5C-1941,248.7-1947.1,240.5-1947.1,231.6z"/>
		<path class="st14" d="M-1900.6,222.9c6.8,0,12.8,4.8,12.8,13.3c0,8.1-5.7,12.1-12.5,12.1c-7.6,0-12.5-5.3-12.5-12.5
			C-1912.8,228.2-1907.7,222.9-1900.6,222.9z M-1904.1,232.7c0,2.4,0.4,5.4,1.3,7.6c0.8,1.8,2.1,2.9,3.5,2.9c1.6,0,3.1-1.2,3.1-4.8
			c0-2.4-0.6-5.5-1.6-7.7c-1-2.3-2.4-3.5-3.6-3.5C-1902.7,227.2-1904.1,228.4-1904.1,232.7z"/>
		<path class="st14" d="M-1875.2,224.2v16.2c0,2.1,0.4,2.9,1.1,3.7c0.7,0.8,1.5,1,1.5,2.3c0,1-0.5,1.6-2,1.6c-1.4,0-3.2-0.1-4.6-0.1
			c-1.8,0-3.3,0.1-5.3,0.1c-1.2,0-1.7-0.7-1.7-1.5c0-1.2,1-1.8,1.4-2.3c1.2-1.5,1.3-2.9,1.3-4.2v-19.1c0-1.3-0.9-2-1.5-2.3
			c-0.5-0.3-1-0.7-1-1.4c0-1.3,1.8-1.5,3.9-2.4c2.4-1,4.1-2,5.3-2c1,0,1.7,0.5,1.7,1.7C-1875,217.2-1875.2,217.2-1875.2,224.2z"/>
		<path class="st14" d="M-1854,246c-0.3-0.4-0.5-0.9-0.8-0.9c-0.2,0-0.6,0.4-1.1,0.9c-1.1,1-2.9,2.3-5.9,2.3c-4.8,0-9-3.8-9-11.9
			c0-8.7,4.3-13.6,9.8-13.6c4,0,5.4,2.2,5.7,2.2c0.2,0,0.4-0.4,0.4-2.1v-2c0-1.4-1-2.3-1.6-2.6c-0.5-0.3-1-0.7-1-1.4
			c0-1.3,1.8-1.5,3.9-2.4c2.4-1,4.1-2,5.3-2c1,0,1.7,0.5,1.7,1.7c0,3.1-0.2,3-0.2,10v16.1c0,0.9,0.4,1.9,1.5,1.9
			c0.4,0,0.7-0.1,1-0.1s0.5,0.5,0.5,1c0,3-2.5,5.1-5.7,5.1C-1851.6,248.2-1852.9,247.7-1854,246z M-1854.7,235.2
			c0-6-1.8-7.8-3.6-7.8c-2,0-3.6,1.8-3.6,7.3c0,5.4,1.7,7.8,4,7.8C-1856.1,242.5-1854.7,241-1854.7,235.2z"/>
		<path class="st14" d="M-1831.5,234.4v6c0,2.1,0.4,2.9,1.1,3.7c0.7,0.8,1.5,1,1.5,2.3c0,1-0.5,1.6-2,1.6s-3.2-0.1-4.6-0.1
			c-1.8,0-3.2,0.1-5.3,0.1c-1.2,0-1.7-0.7-1.7-1.5c0-1.2,1-1.8,1.4-2.3c1.2-1.5,1.3-2.9,1.3-4.2v-7.9c0-1.7-0.8-2.7-1.4-3.1
			c-0.5-0.4-1.1-0.8-1.1-1.6c0-1.5,1.8-1.6,3.9-2.5c2.4-1,4.4-2,5.4-2c1.1,0,1.7,0.5,1.7,1.7
			C-1831.3,226.2-1831.5,229.1-1831.5,234.4z M-1834.5,212.2c2.1,0,3.8,1.4,3.8,3.6c0,3-3.2,5.4-6.4,5.4c-2.3,0-3.4-1.3-3.4-3.1
			C-1840.5,215.2-1837.6,212.2-1834.5,212.2z"/>
		<path class="st14" d="M-1817.3,237.2c-0.5,0-0.6,0.1-0.6,0.5c0,1.5,1.6,4.1,5.5,4.1c3.2,0,5-1.5,6.2-2.6c0.3-0.3,0.7-0.5,1-0.5
			c0.5,0,0.8,0.5,0.8,1.5c0,3.4-3.9,8.2-10.8,8.2c-7.6,0-12.2-5.1-12.2-12.2c0-7.1,5.1-13.3,12.9-13.3c7.1,0,9.6,5.3,9.6,8.6
			c0,1.8-0.9,2.8-2.3,3.5C-1809.8,236.4-1814.8,237-1817.3,237.2z M-1815.3,227.1c-2.3,0-3.8,2.4-3.8,4.8c0,1,0.3,1.6,1.1,1.6
			c1.2,0,4-0.7,5.1-2c0.3-0.4,0.5-0.8,0.5-1.3C-1812.4,228.5-1813.6,227.1-1815.3,227.1z"/>
		<path class="st14" d="M-1784.4,224.6c1.2,1.2,1.5,2.8,1.5,4.7c0,1.3-0.8,2.1-1.7,2.1c-0.8,0-1.5-0.7-2.3-1.5
			c-1.2-1.3-2.8-3.1-5.3-3.1c-1.6,0-2.4,0.9-2.4,1.9c0,1.6,1.7,2,5.2,3.3c3.7,1.3,7.5,3.2,7.5,8.4c0,4.7-4.2,8.1-10.6,8.1
			c-2.5,0-6.5-0.7-8.4-2.4c-0.8-0.7-1.5-2.6-1.5-5c0-1.3,0.6-2.1,1.8-2.1c0.6,0,1.1,0.5,1.6,1.1c1.3,1.4,3.1,3.8,6.3,3.8
			c1.5,0,2.3-0.8,2.3-2c0-1.9-2.7-2.3-5.9-3.9c-2.6-1.3-5.5-2.9-5.5-7.3c0-4.7,4.5-7.9,9.9-7.9
			C-1789.3,222.8-1785.7,223.2-1784.4,224.6z"/>
	</g>
</g>
<path class="st18" d="M-334.8,278.4L-334.8,278.4c0-18.5-15.2-33.7-33.7-33.7l0,0c-15.5,0-28.6,10.5-32.5,24.8h-269.4
	c-4.7-13.1-17.2-22.5-31.8-22.5l0,0c-18.5,0-33.7,15.2-33.7,33.7l0,0c0,10.8,5.2,20.5,13.2,26.7c-8,6.2-13.2,15.9-13.2,26.7l0,0
	c0,18.5,15.2,33.7,33.7,33.7l0,0c14.6,0,27.1-9.4,31.8-22.5h271c5.2,11.9,17.1,20.2,30.9,20.2l0,0c18.5,0,33.7-15.2,33.7-33.7l0,0
	c0-10.8-5.2-20.5-13.2-26.7C-340,298.9-334.8,289.3-334.8,278.4z"/>
</svg>
